<!DOCTYPE svg PUBLIC "-//W3C//DTD SVG 20010904//EN" "http://www.w3.org/TR/2001/REC-SVG-20010904/DTD/svg10.dtd">
<svg version="1.0" xmlns="http://www.w3.org/2000/svg" width="198px" height="198px" viewBox="0 0 1980 1980" preserveAspectRatio="xMidYMid meet">
<g id="layer101" fill="#1d1d1d" stroke="none">
 <path d="M0 990 l0 -990 990 0 990 0 0 990 0 990 -990 0 -990 0 0 -990z"/>
 </g>
<g id="layer102" fill="#323232" stroke="none">
 <path d="M0 990 l0 -990 990 0 990 0 0 990 0 990 -990 0 -990 0 0 -990z m635 190 c3 -5 4 -10 1 -10 -3 0 -8 5 -11 10 -3 6 -4 10 -1 10 3 0 8 -4 11 -10z m552 -207 c-2 -16 -4 -3 -4 27 0 30 2 43 4 28 2 -16 2 -40 0 -55z m-646 -20 c-16 -76 -16 -76 -24 -37 -22 117 -23 114 10 114 l30 0 -16 -77z m-91 25 c0 -13 -5 -30 -10 -38 -8 -12 -10 -11 -10 7 0 12 -3 28 -6 37 -4 11 -1 16 10 16 10 0 16 -8 16 -22z m176 0 c-3 -13 -6 -30 -7 -38 0 -10 -3 -8 -9 5 -14 32 -11 55 6 55 12 0 15 -6 10 -22z m-179 -125 c-4 -3 -10 -3 -14 0 -3 4 0 7 7 7 7 0 10 -3 7 -7z"/>
 </g>
<g id="layer103" fill="#505050" stroke="none">
 <path d="M0 990 l0 -990 990 0 990 0 0 990 0 990 -990 0 -990 0 0 -990z m548 253 c-10 -2 -28 -2 -40 0 -13 2 -5 4 17 4 22 1 32 -1 23 -4z m-101 -20 c-4 -3 -10 -3 -14 0 -3 4 0 7 7 7 7 0 10 -3 7 -7z m170 0 c-4 -3 -10 -3 -14 0 -3 4 0 7 7 7 7 0 10 -3 7 -7z m-50 -10 c-4 -3 -10 -3 -14 0 -3 4 0 7 7 7 7 0 10 -3 7 -7z m-157 -7 c0 -2 -8 -10 -17 -17 -16 -13 -17 -12 -4 4 13 16 21 21 21 13z m187 -3 c-4 -3 -10 -3 -14 0 -3 4 0 7 7 7 7 0 10 -3 7 -7z m68 -13 c10 -11 16 -20 13 -20 -3 0 -13 9 -23 20 -10 11 -16 20 -13 20 3 0 13 -9 23 -20z m-235 -9 c0 -5 -7 -12 -16 -15 -14 -5 -15 -4 -4 9 14 17 20 19 20 6z m220 -16 c13 -14 21 -25 18 -25 -2 0 -15 11 -28 25 -13 14 -21 25 -18 25 2 0 15 -11 28 -25z m-280 -9 c0 -3 -5 -8 -12 -12 -7 -4 -8 -3 -4 4 7 12 16 16 16 8z m307 -43 c-4 -3 -7 0 -7 7 0 7 3 10 7 7 3 -4 3 -10 0 -14z m-300 -10 c-4 -3 -7 0 -7 7 0 7 3 10 7 7 3 -4 3 -10 0 -14z m-10 -30 c-4 -3 -7 0 -7 7 0 7 3 10 7 7 3 -4 3 -10 0 -14z m350 -140 c-2 -32 -3 -8 -3 52 0 61 1 87 3 58 2 -29 2 -78 0 -110z m-380 5 c-2 -29 -3 -8 -3 47 0 55 1 79 3 53 2 -26 2 -71 0 -100z m190 125 c-4 -3 -7 0 -7 7 0 7 3 10 7 7 3 -4 3 -10 0 -14z m90 -20 c-3 -10 -5 -4 -5 12 0 17 2 24 5 18 2 -7 2 -21 0 -30z m-180 -5 c-3 -8 -6 -5 -6 6 -1 11 2 17 5 13 3 -3 4 -12 1 -19z m506 5 c-7 -2 -19 -2 -25 0 -7 3 -2 5 12 5 14 0 19 -2 13 -5z m184 0 c-4 -3 -10 -3 -14 0 -3 4 0 7 7 7 7 0 10 -3 7 -7z m86 0 c-18 -4 -23 -12 -26 -51 l-3 -47 -2 53 c-2 51 -1 52 26 51 22 -1 23 -2 5 -6z m95 0 c-10 -2 -26 -2 -35 0 -10 3 -2 5 17 5 19 0 27 -2 18 -5z m112 3 c0 -2 -13 -6 -30 -8 -16 -3 -30 -1 -30 4 0 4 14 8 30 8 17 0 30 -2 30 -4z m97 -13 c-4 -3 -7 0 -7 7 0 7 3 10 7 7 3 -4 3 -10 0 -14z m123 13 c0 -2 -11 -6 -25 -8 -14 -3 -25 -1 -25 3 0 5 11 9 25 9 14 0 25 -2 25 -4z m-1091 -58 c-5 -24 -12 -61 -16 -83 l-7 -40 -7 35 c-4 19 -11 56 -17 83 l-9 47 32 0 32 0 -8 -42z m-104 -35 l-8 -38 -9 34 c-11 40 -3 70 14 53 7 -7 8 -24 3 -49z m922 40 c-4 -3 -7 0 -7 7 0 7 3 10 7 7 3 -4 3 -10 0 -14z m230 -30 c-3 -10 -5 -2 -5 17 0 19 2 27 5 18 2 -10 2 -26 0 -35z m-967 28 c0 -5 -3 -24 -7 -42 -7 -33 -7 -33 -14 -9 -12 41 -10 60 6 60 8 0 15 -4 15 -9z m-177 -138 c3 -5 -5 -8 -18 -8 -13 0 -21 3 -18 8 2 4 10 7 18 7 8 0 16 -3 18 -7z m-88 -33 c3 -5 4 -10 1 -10 -3 0 -8 5 -11 10 -3 6 -4 10 -1 10 3 0 8 -4 11 -10z m35 -45 c13 -14 21 -25 18 -25 -2 0 -15 11 -28 25 -13 14 -21 25 -18 25 2 0 15 -11 28 -25z m280 22 c0 -2 -12 -14 -27 -28 l-28 -24 24 28 c23 25 31 32 31 24z m-83 -64 c-4 -3 -10 -3 -14 0 -3 4 0 7 7 7 7 0 10 -3 7 -7z m-100 -10 c-4 -3 -10 -3 -14 0 -3 4 0 7 7 7 7 0 10 -3 7 -7z m70 0 c-4 -3 -10 -3 -14 0 -3 4 0 7 7 7 7 0 10 -3 7 -7z"/>
 </g>
<g id="layer104" fill="#717171" stroke="none">
 <path d="M0 990 l0 -990 990 0 990 0 0 990 0 990 -990 0 -990 0 0 -990z m517 250 c-73 -9 -127 -45 -156 -102 -11 -24 -21 -37 -21 -30 0 25 30 71 63 96 45 35 75 45 127 44 43 -1 43 -1 -13 -8z m99 -16 c18 -14 18 -14 -6 -3 -31 14 -36 19 -24 19 6 0 19 -7 30 -16z m-63 -11 c-13 -2 -35 -2 -50 0 -16 2 -5 4 22 4 28 0 40 -2 28 -4z m-83 -7 c0 -2 -7 -7 -16 -10 -8 -3 -12 -2 -9 4 6 10 25 14 25 6z m168 -33 c20 -20 26 -28 12 -17 -14 10 -27 22 -30 25 -3 3 -14 11 -25 17 -11 6 -14 12 -7 12 7 0 29 -16 50 -37z m58 -25 c8 -15 14 -31 14 -35 -1 -4 -8 6 -17 22 -8 17 -25 41 -37 55 l-21 25 24 -20 c12 -11 29 -32 37 -47z m-271 14 c-24 -3 -55 -53 -55 -88 0 -9 -3 -15 -6 -11 -11 11 8 67 33 97 19 24 27 27 38 17 11 -10 9 -13 -10 -15z m264 -72 c0 -10 -3 -8 -9 5 -12 27 -12 43 0 25 5 -8 9 -22 9 -30z m28 -162 c-2 -35 -3 -9 -3 57 0 66 1 94 3 63 2 -32 2 -86 0 -120z m-380 5 c-2 -32 -3 -8 -3 52 0 61 1 87 3 58 2 -29 2 -78 0 -110z m100 110 c-3 -10 -5 -4 -5 12 0 17 2 24 5 18 2 -7 2 -21 0 -30z m90 20 c-4 -3 -7 0 -7 7 0 7 3 10 7 7 3 -4 3 -10 0 -14z m90 -20 c-3 -10 -5 -4 -5 12 0 17 2 24 5 18 2 -7 2 -21 0 -30z m336 0 c-7 -2 -21 -2 -30 0 -10 3 -4 5 12 5 17 0 24 -2 18 -5z m160 -3 c-13 -5 -23 -15 -23 -21 0 -7 -3 -9 -6 -6 -10 10 16 37 35 36 11 0 9 -3 -6 -9z m100 3 c-18 -4 -23 -12 -26 -51 l-3 -47 -2 53 c-2 51 -1 52 26 51 22 -1 23 -2 5 -6z m105 0 c-10 -2 -28 -2 -40 0 -13 2 -5 4 17 4 22 1 32 -1 23 -4z m80 0 c-26 -4 -27 -8 -31 -66 l-3 -62 -2 68 -2 67 33 -1 c29 -2 30 -2 5 -6z m127 -3 c3 -5 1 -10 -4 -10 -6 0 -11 5 -11 10 0 6 2 10 4 10 3 0 8 -4 11 -10z m103 3 c-24 -4 -27 -8 -26 -44 0 -22 -2 -43 -6 -46 -3 -4 -6 17 -6 45 l0 52 33 -1 c29 -2 29 -2 5 -6z m-1073 -35 c-3 -18 -11 -57 -18 -87 l-11 -55 -18 80 c-9 43 -18 82 -18 87 0 4 16 7 36 7 35 0 35 -1 29 -32z m486 9 c-10 -9 -11 -8 -5 6 3 10 9 15 12 12 3 -3 0 -11 -7 -18z m250 -4 c13 -16 12 -17 -3 -4 -10 7 -18 15 -18 17 0 8 8 3 21 -13z m-294 0 c-4 -3 -10 -3 -14 0 -3 4 0 7 7 7 7 0 10 -3 7 -7z m-547 -35 c0 -49 -16 -67 -24 -28 -9 48 -8 60 9 60 10 0 15 -10 15 -32z m180 10 c0 -13 -3 -34 -7 -47 -6 -23 -7 -23 -14 -5 -13 34 -10 74 6 74 9 0 15 -9 15 -22z m231 -5 c13 -17 13 -17 -6 -3 -11 8 -22 16 -24 17 -2 2 0 3 6 3 6 0 17 -8 24 -17z m636 0 c-4 -3 -7 0 -7 7 0 7 3 10 7 7 3 -4 3 -10 0 -14z m-410 -20 c-4 -3 -7 0 -7 7 0 7 3 10 7 7 3 -4 3 -10 0 -14z m-72 -3 c3 -5 4 -10 1 -10 -3 0 -8 5 -11 10 -3 6 -4 10 -1 10 3 0 8 -4 11 -10z m132 -7 c-4 -3 -10 -3 -14 0 -3 4 0 7 7 7 7 0 10 -3 7 -7z m156 0 c-7 -2 -19 -2 -25 0 -7 3 -2 5 12 5 14 0 19 -2 13 -5z m-438 -23 c-3 -5 -12 -10 -18 -10 -7 0 -6 4 3 10 19 12 23 12 15 0z m-454 -164 c19 -15 25 -23 14 -18 -37 19 -85 83 -85 114 0 7 9 -5 19 -28 10 -22 34 -53 52 -68z m43 85 c4 -5 -4 -7 -16 -3 -18 4 -20 2 -16 -16 4 -12 2 -22 -3 -22 -10 0 -12 33 -2 43 9 10 31 9 37 -2z m243 -28 c-8 -15 -28 -39 -43 -53 -27 -23 -26 -23 3 12 17 20 34 46 38 58 4 12 9 19 12 17 2 -3 -2 -18 -10 -34z m-237 -3 c0 -5 -5 -10 -11 -10 -5 0 -7 5 -4 10 3 6 8 10 11 10 2 0 4 -4 4 -10z m155 -80 c-3 -5 -14 -10 -23 -9 -14 0 -13 2 3 9 27 11 27 11 20 0z m-148 -7 c-4 -3 -10 -3 -14 0 -3 4 0 7 7 7 7 0 10 -3 7 -7z m86 -10 c-13 -2 -35 -2 -50 0 -16 2 -5 4 22 4 28 0 40 -2 28 -4z"/>
 </g>
<g id="layer105" fill="#8f8f8f" stroke="none">
 <path d="M0 990 l0 -990 990 0 990 0 0 990 0 990 -990 0 -990 0 0 -990z m605 241 c50 -22 91 -69 106 -120 7 -23 10 -85 8 -154 -4 -111 -5 -117 -35 -153 -55 -68 -77 -79 -159 -79 -67 0 -77 3 -112 31 -65 52 -83 101 -83 226 0 151 27 208 115 249 51 24 109 24 160 0z m231 -231 c31 0 54 -41 34 -65 -7 -8 -20 -14 -29 -14 -14 1 -14 2 1 6 39 10 27 63 -14 63 -17 0 -20 -5 -16 -35 2 -19 0 -35 -4 -35 -4 0 -7 30 -7 68 1 37 4 55 6 40 3 -22 10 -28 29 -28z m107 43 c-18 -4 -23 -12 -26 -51 l-3 -47 -2 53 c-2 51 -1 52 26 51 22 -1 23 -2 5 -6z m104 -23 c-7 -17 -13 -26 -15 -20 -5 14 -32 13 -32 -2 0 -9 -4 -8 -10 2 -15 23 -12 28 16 22 18 -3 30 0 36 12 15 26 17 19 5 -14z m78 23 c-11 -3 -26 -12 -32 -21 -7 -9 -13 -11 -13 -6 0 17 23 34 45 33 20 -1 20 -1 0 -6z m93 0 c-36 -5 -40 -42 -5 -44 l22 -2 -22 -4 c-13 -2 -23 -11 -23 -18 0 -7 10 -16 23 -18 19 -4 18 -4 -5 -6 -27 -1 -28 1 -28 49 l0 50 33 -1 c30 -2 30 -2 5 -6z m90 0 c-34 -5 -34 -6 -7 -42 12 -16 18 -34 15 -40 -8 -13 -43 -15 -50 -2 -3 4 6 6 19 3 32 -6 32 9 0 46 -14 17 -25 33 -25 36 0 3 17 5 38 5 30 -2 32 -3 10 -6z m90 0 c-26 -4 -27 -8 -31 -66 l-3 -62 -2 68 -2 67 33 -1 c29 -2 30 -2 5 -6z m49 -70 c-2 -16 -4 -3 -4 27 0 30 2 43 4 28 2 -16 2 -40 0 -55z m83 67 c0 -5 -4 -10 -10 -10 -5 0 -10 5 -10 10 0 6 5 10 10 10 6 0 10 -4 10 -10z m98 3 c-36 -5 -40 -42 -5 -44 l22 -2 -22 -4 c-32 -6 -29 -31 5 -36 25 -4 25 -4 -5 -6 l-33 -1 0 50 0 50 33 -1 c30 -2 30 -2 5 -6z m-129 -62 c-6 -18 -13 -30 -15 -28 -2 2 1 18 7 36 6 18 13 30 15 28 2 -2 -1 -18 -7 -36z m51 4 c0 -5 -5 -3 -10 5 -5 8 -10 20 -10 25 0 6 5 3 10 -5 5 -8 10 -19 10 -25z m-427 -28 c31 -4 31 -5 -3 -3 -23 1 -35 6 -36 16 0 8 1 10 3 3 2 -6 19 -14 36 -16z m-101 14 c8 11 9 11 6 1 -4 -16 -22 -18 -24 -3 -2 8 -1 7 3 0 4 -8 8 -7 15 2z m535 -18 c-4 -3 -7 0 -7 7 0 7 3 10 7 7 3 -4 3 -10 0 -14z"/>
 <path d="M442 1219 c-25 -12 -55 -39 -70 -62 -24 -37 -27 -51 -30 -151 -4 -118 5 -167 39 -210 49 -62 154 -84 227 -47 80 41 102 91 102 238 0 88 -4 114 -21 151 -44 89 -158 127 -247 81z m168 -21 c18 -13 41 -34 52 -48 21 -29 42 -94 27 -85 -5 4 -9 13 -9 21 0 9 -11 14 -34 14 -19 0 -38 5 -41 10 -4 6 8 10 30 10 33 0 35 2 25 20 -9 17 -22 20 -83 22 -70 2 -70 2 -14 5 64 4 72 14 27 33 -36 15 -123 9 -146 -11 -15 -12 -14 -14 3 -20 14 -6 11 -8 -12 -8 -19 -1 -35 -9 -43 -21 -12 -19 -10 -20 73 -20 48 0 85 -4 85 -10 0 -5 -17 -9 -37 -8 -125 2 -143 -1 -144 -24 0 -13 -3 -17 -6 -10 -14 36 37 114 92 138 48 21 117 17 155 -8z m-33 -55 c-20 -2 -52 -2 -70 0 -17 2 0 4 38 4 39 0 53 -2 32 -4z m-140 -100 c-3 -10 -5 -4 -5 12 0 17 2 24 5 18 2 -7 2 -21 0 -30z m90 20 c-4 -3 -7 0 -7 7 0 7 3 10 7 7 3 -4 3 -10 0 -14z m90 -20 c-3 -10 -5 -4 -5 12 0 17 2 24 5 18 2 -7 2 -21 0 -30z m-57 -13 c0 -5 -8 -44 -17 -87 l-17 -78 -18 75 c-23 101 -24 100 17 100 19 0 35 -4 35 -10z m-100 -26 c0 -3 -5 -26 -12 -52 -11 -42 -13 -45 -19 -22 -14 51 -10 80 11 80 11 0 20 -3 20 -6z m169 -41 c-11 -59 -15 -63 -24 -21 -3 18 -9 41 -11 51 -4 13 1 17 19 17 24 0 24 -1 16 -47z m-171 -127 c5 -24 -10 -38 -31 -30 -17 6 -23 35 -10 48 12 12 38 1 41 -18z"/>
 <path d="M422 834 c4 -21 22 -23 26 -1 2 10 -3 17 -13 17 -10 0 -15 -6 -13 -16z"/>
 </g>
<g id="layer106" fill="#b1b1b1" stroke="none">
 <path d="M0 990 l0 -990 990 0 990 0 0 990 0 990 -990 0 -990 0 0 -990z m614 237 c22 -12 53 -39 70 -60 31 -38 31 -41 34 -168 4 -117 2 -133 -18 -174 -14 -29 -38 -57 -63 -73 -34 -23 -51 -27 -112 -27 -82 0 -123 21 -165 84 -22 32 -25 49 -28 154 -3 92 -1 128 12 161 42 109 173 159 270 103z m222 -227 c16 0 28 -8 36 -25 14 -32 -4 -55 -43 -55 l-29 0 1 68 c1 37 4 55 6 40 3 -22 10 -28 29 -28z m107 43 c-20 -4 -23 -11 -23 -49 0 -24 -4 -44 -10 -44 -5 0 -10 23 -10 50 l0 50 33 -1 c23 -1 26 -3 10 -6z m69 -23 c11 0 27 8 34 18 10 12 9 4 -2 -30 -9 -27 -20 -50 -25 -53 -9 -6 -32 34 -43 75 -6 21 -5 22 4 8 6 -10 20 -18 32 -18z m132 22 c2 -4 -8 -8 -22 -7 -24 0 -27 -4 -27 -35 0 -31 4 -36 30 -41 l30 -7 -32 -1 c-23 -1 -35 5 -43 19 -12 22 -4 60 14 72 15 10 44 10 50 0z m74 1 c-36 -5 -40 -42 -5 -44 l22 -2 -22 -4 c-32 -6 -29 -31 5 -36 25 -4 25 -4 -5 -6 l-33 -1 0 50 0 50 33 -1 c30 -2 30 -2 5 -6z m90 0 c-34 -5 -34 -6 -7 -42 12 -16 18 -34 15 -40 -8 -13 -43 -15 -50 -2 -3 4 6 6 19 3 32 -6 32 9 0 46 -14 17 -25 33 -25 36 0 3 17 5 38 5 30 -2 32 -3 10 -6z m90 0 c-26 -4 -27 -8 -31 -66 l-3 -62 -2 68 -2 67 33 -1 c29 -2 30 -2 5 -6z m49 -70 c-2 -16 -4 -3 -4 27 0 30 2 43 4 28 2 -16 2 -40 0 -55z m97 34 c23 -60 19 -71 -6 -17 l-20 45 -15 -43 c-8 -24 -17 -41 -19 -39 -6 6 27 97 36 97 4 0 15 -19 24 -43z m84 36 c-36 -5 -40 -42 -5 -44 l22 -2 -22 -4 c-32 -6 -29 -31 5 -36 25 -4 25 -4 -5 -6 l-33 -1 0 50 0 50 33 -1 c30 -2 30 -2 5 -6z"/>
 <path d="M473 1234 c-41 -9 -109 -80 -123 -127 -18 -66 -10 -232 14 -280 27 -55 84 -90 154 -95 50 -3 63 0 103 26 71 45 89 92 89 227 0 128 -18 177 -79 219 -38 26 -110 40 -158 30z m152 -40 c41 -27 93 -134 65 -134 -5 0 -10 9 -10 20 0 17 -7 20 -40 20 -22 0 -40 5 -40 10 0 6 16 10 35 10 33 0 35 2 25 20 -9 17 -21 20 -80 20 -40 0 -70 4 -70 10 0 6 23 10 52 10 38 0 49 3 41 11 -32 32 -179 15 -152 -17 9 -11 7 -14 -13 -14 -24 0 -48 -16 -48 -32 0 -4 36 -8 80 -8 47 0 80 -4 80 -10 0 -6 -36 -10 -89 -10 l-90 0 -4 -27 c-4 -27 -4 -27 -6 3 -2 56 64 129 130 143 40 9 100 -3 134 -25z m-15 -54 c0 -6 -28 -10 -65 -10 -37 0 -65 4 -65 10 0 6 28 10 65 10 37 0 65 -4 65 -10z m-173 -107 c-3 -10 -5 -2 -5 17 0 19 2 27 5 18 2 -10 2 -26 0 -35z m90 30 c-4 -3 -7 0 -7 7 0 7 3 10 7 7 3 -4 3 -10 0 -14z m90 -30 c-3 -10 -5 -2 -5 17 0 19 2 27 5 18 2 -10 2 -26 0 -35z m-58 -15 c0 -13 -8 -54 -18 -93 l-17 -70 -17 85 c-9 47 -17 88 -17 93 0 4 16 7 35 7 30 0 35 -3 34 -22z m-105 -45 c-11 -61 -20 -70 -28 -29 -4 21 -10 44 -13 52 -4 10 3 14 21 14 26 0 27 -2 20 -37z m182 20 c-2 -10 -8 -34 -12 -53 -6 -29 -8 -32 -14 -15 -4 11 -11 35 -14 53 -7 30 -6 32 19 32 20 0 25 -4 21 -17z m-173 -147 c8 -21 -17 -50 -37 -43 -16 6 -22 38 -9 50 11 12 41 7 46 -7z"/>
 <path d="M422 834 c4 -21 22 -23 26 -1 2 10 -3 17 -13 17 -10 0 -15 -6 -13 -16z"/>
 <path d="M810 961 c0 -27 4 -31 26 -31 22 0 25 4 22 28 -2 19 -9 28 -25 30 -20 3 -23 -1 -23 -27z"/>
 <path d="M1000 998 c0 -17 20 -47 20 -31 0 6 3 18 6 27 4 11 1 16 -10 16 -9 0 -16 -6 -16 -12z"/>
 </g>
<g id="layer107" fill="#d3d3d3" stroke="none">
 <path d="M0 990 l0 -990 990 0 990 0 0 990 0 990 -990 0 -990 0 0 -990z m632 231 c19 -14 46 -40 59 -59 23 -33 24 -44 24 -177 0 -138 -1 -143 -28 -183 -79 -120 -266 -111 -334 17 -20 39 -23 58 -23 163 0 130 9 165 56 212 44 43 81 57 150 53 45 -2 71 -9 96 -26z m187 -183 c-3 -28 2 -38 20 -38 27 0 44 -26 37 -55 -5 -21 -12 -25 -41 -25 l-35 0 0 65 c0 38 4 65 10 65 6 0 10 -6 9 -12z m124 5 c-20 -4 -23 -11 -23 -49 0 -24 -4 -44 -10 -44 -5 0 -10 23 -10 50 l0 50 33 -1 c23 -1 26 -3 10 -6z m76 -23 c12 0 21 6 21 15 0 8 5 15 10 15 14 0 12 -8 -14 -65 l-23 -50 -15 36 c-9 20 -19 47 -22 60 -6 22 -6 22 7 7 8 -10 24 -18 36 -18z m125 22 c2 -4 -8 -8 -22 -7 -24 0 -27 -4 -27 -35 0 -31 3 -35 30 -40 24 -5 27 -7 12 -13 -42 -16 -81 39 -57 82 10 21 54 29 64 13z m74 1 c-36 -5 -40 -42 -5 -44 l22 -2 -22 -4 c-32 -6 -29 -33 3 -33 14 0 23 -4 19 -10 -3 -5 -17 -10 -31 -10 -23 0 -24 3 -24 55 l0 55 33 -1 c30 -2 30 -2 5 -6z m89 -2 l-29 -6 21 -27 c24 -30 26 -39 10 -55 -11 -11 -49 -6 -49 7 0 5 8 6 19 3 32 -8 32 12 0 50 l-30 37 43 -1 c36 -1 39 -2 15 -8z m91 2 c-26 -4 -27 -8 -31 -66 l-3 -62 -2 68 -2 67 33 -1 c29 -2 30 -2 5 -6z m49 -70 c-2 -16 -4 -3 -4 27 0 30 2 43 4 28 2 -16 2 -40 0 -55z m101 27 c12 -27 17 -50 12 -50 -5 0 -14 16 -20 35 -15 44 -23 44 -39 -1 -7 -19 -15 -33 -18 -30 -3 3 -1 18 5 33 5 15 13 36 16 46 9 29 22 19 44 -33z m80 43 c-34 -5 -37 -30 -5 -43 l22 -9 -22 0 c-32 -1 -30 -31 2 -31 14 0 25 -4 25 -10 0 -5 -13 -10 -30 -10 -30 0 -30 1 -30 55 l0 55 33 -1 c30 -2 30 -2 5 -6z"/>
 <path d="M465 1225 c-50 -18 -100 -71 -114 -122 -6 -21 -11 -78 -11 -128 0 -100 17 -150 64 -197 80 -79 232 -53 282 49 23 47 31 208 14 273 -15 56 -72 114 -125 129 -50 14 -61 13 -110 -4z m145 -20 c35 -18 60 -48 76 -92 16 -46 17 -63 4 -63 -5 0 -10 11 -10 25 0 22 -4 25 -39 25 -22 0 -43 5 -46 10 -4 6 10 10 34 10 39 0 40 1 29 20 -11 17 -24 20 -80 20 -39 0 -68 4 -68 10 0 6 24 10 53 10 50 1 51 1 27 15 -14 8 -43 14 -65 14 -35 0 -110 -28 -77 -29 22 0 12 -20 -11 -20 -23 0 -47 -17 -47 -32 0 -4 36 -8 80 -8 108 0 102 -18 -7 -22 -83 -3 -88 -4 -95 -28 -6 -18 -7 -14 -4 17 10 108 140 171 246 118z m0 -65 c0 -6 -28 -10 -65 -10 -37 0 -65 4 -65 10 0 6 28 10 65 10 37 0 65 -4 65 -10z m-173 -107 c-3 -10 -5 -2 -5 17 0 19 2 27 5 18 2 -10 2 -26 0 -35z m90 25 c-3 -8 -6 -5 -6 6 -1 11 2 17 5 13 3 -3 4 -12 1 -19z m90 -25 c-3 -10 -5 -2 -5 17 0 19 2 27 5 18 2 -10 2 -26 0 -35z m-57 -12 c0 -23 -31 -163 -36 -159 -4 4 -34 149 -34 166 0 7 14 12 35 12 28 0 35 -4 35 -19z m-100 -22 c0 -5 -5 -31 -12 -57 l-12 -47 -13 50 c-17 66 -17 65 12 65 14 0 25 -5 25 -11z m180 6 c0 -2 -5 -28 -11 -57 -13 -57 -19 -52 -33 25 -7 35 -5 37 19 37 14 0 25 -2 25 -5z m-176 -161 c7 -19 -10 -44 -29 -44 -19 0 -36 25 -29 44 3 9 16 16 29 16 13 0 26 -7 29 -16z"/>
 <path d="M426 843 c-11 -11 -6 -23 9 -23 8 0 15 4 15 9 0 13 -16 22 -24 14z"/>
 <path d="M814 975 c3 -9 6 -23 6 -31 0 -8 9 -14 21 -14 32 0 23 54 -10 58 -19 3 -22 0 -17 -13z"/>
 <path d="M1000 996 c0 -22 17 -28 24 -10 9 22 8 24 -9 24 -8 0 -15 -6 -15 -14z"/>
 </g>
<g id="layer108" fill="#ffffff" stroke="none">
 <path d="M0 990 l0 -990 990 0 990 0 0 990 0 990 -990 0 -990 0 0 -990z m614 244 c45 -23 65 -44 88 -88 17 -33 19 -55 16 -176 -3 -138 -3 -138 -34 -177 -47 -58 -89 -78 -159 -77 -64 1 -107 17 -141 56 -46 50 -54 80 -54 213 0 106 3 132 20 165 48 95 167 132 264 84z m206 -201 c0 -10 14 -26 30 -35 39 -22 41 -63 6 -80 -44 -20 -56 -6 -56 67 0 37 4 65 10 65 6 0 10 -8 10 -17z m140 7 c0 -5 -9 -10 -20 -10 -17 0 -20 -7 -20 -45 0 -25 -4 -45 -10 -45 -5 0 -10 25 -10 55 0 54 0 55 30 55 17 0 30 -4 30 -10z m34 -5 c7 -20 33 -19 45 2 5 10 12 15 15 12 7 -7 -23 -97 -35 -105 -8 -5 -49 75 -49 97 0 15 17 10 24 -6z m156 4 c0 -6 -9 -9 -20 -6 -24 6 -43 -15 -38 -45 2 -18 9 -23 31 -23 29 1 32 -18 3 -23 -41 -8 -75 65 -44 96 15 15 68 16 68 1z m90 1 c0 -5 -11 -10 -25 -10 -14 0 -25 -4 -25 -10 0 -5 9 -10 20 -10 11 0 20 -4 20 -10 0 -5 -6 -10 -14 -10 -8 0 -16 -7 -20 -15 -4 -11 1 -15 19 -15 14 0 25 -5 25 -11 0 -6 -14 -9 -32 -7 -32 3 -33 4 -36 56 l-3 52 35 0 c20 0 36 -4 36 -10z m95 0 c-3 -5 -15 -10 -26 -10 -19 0 -19 -1 -5 -22 18 -26 21 -54 6 -63 -13 -8 -50 4 -50 16 0 6 9 7 20 4 28 -9 25 9 -6 51 l-26 34 46 0 c29 0 45 -4 41 -10z m90 0 c-3 -5 -17 -10 -31 -10 -23 0 -24 -3 -24 -62 0 -34 -3 -58 -7 -54 -4 4 -7 36 -8 71 l0 65 38 0 c23 0 36 -4 32 -10z m35 -39 c0 -28 -4 -53 -10 -56 -6 -4 -10 15 -10 49 0 31 5 56 10 56 6 0 10 -22 10 -49z m85 7 c9 -24 19 -49 22 -55 3 -7 1 -13 -4 -13 -6 0 -18 19 -27 43 l-18 42 -15 -42 c-16 -47 -37 -60 -23 -15 15 52 30 82 39 82 5 0 17 -19 26 -42z m105 32 c0 -5 -9 -10 -20 -10 -11 0 -20 -4 -20 -10 0 -5 7 -10 15 -10 8 0 15 -4 15 -10 0 -5 -7 -10 -15 -10 -8 0 -15 -7 -15 -15 0 -8 9 -15 20 -15 11 0 20 -4 20 -10 0 -5 -13 -10 -30 -10 -30 0 -30 1 -30 55 0 54 0 55 30 55 17 0 30 -4 30 -10z"/>
 <path d="M435 1212 c-16 -11 -37 -27 -45 -38 -10 -13 -6 -11 12 4 14 13 43 30 65 37 22 8 30 14 18 15 -11 0 -33 -8 -50 -18z"/>
 <path d="M558 1223 c6 -2 18 -2 25 0 6 3 1 5 -13 5 -14 0 -19 -2 -12 -5z"/>
 <path d="M623 1198 c16 -13 37 -34 48 -48 12 -14 17 -18 13 -10 -11 24 -47 61 -69 72 -11 5 -8 0 8 -14z"/>
 <path d="M465 1195 c-16 -8 -24 -14 -17 -15 23 0 12 -20 -13 -20 -14 0 -29 -8 -35 -20 -10 -19 -8 -20 75 -20 50 0 85 -4 85 -10 0 -6 -37 -10 -90 -10 -87 0 -90 -1 -96 -25 -3 -14 -10 -25 -15 -25 -16 0 -11 -188 6 -219 47 -93 172 -125 258 -67 63 42 77 77 77 187 0 59 -4 99 -10 99 -5 0 -10 11 -10 25 0 23 -4 25 -45 25 -25 0 -45 5 -45 10 0 6 16 10 35 10 19 0 35 4 35 8 0 22 -29 32 -92 32 -39 0 -68 4 -68 10 0 6 26 10 58 11 56 1 57 1 27 14 -38 18 -81 17 -120 0z m155 -55 c0 -6 -32 -10 -75 -10 -43 0 -75 4 -75 10 0 6 32 10 75 10 43 0 75 -4 75 -10z m-183 -107 c-3 -10 -5 -2 -5 17 0 19 2 27 5 18 2 -10 2 -26 0 -35z m93 31 c0 -8 -4 -12 -10 -9 -5 3 -10 10 -10 16 0 5 5 9 10 9 6 0 10 -7 10 -16z m90 -16 c0 -23 -3 -29 -9 -19 -5 7 -7 21 -6 30 5 22 4 21 10 21 3 0 5 -15 5 -32z m-54 -20 c-2 -7 -10 -42 -17 -78 -16 -86 -26 -104 -34 -65 -3 17 -10 46 -15 66 -6 20 -10 48 -10 63 0 24 3 26 40 26 27 0 38 -4 36 -12z m-106 -35 c0 -10 -5 -36 -12 -58 l-11 -40 -13 40 c-19 62 -18 75 11 75 17 0 25 -5 25 -17z m180 0 c0 -10 -5 -36 -11 -57 -13 -46 -23 -36 -34 32 -6 40 -6 42 19 42 18 0 26 -5 26 -17z m37 -100 c-4 -3 -10 -3 -14 0 -3 4 0 7 7 7 7 0 10 -3 7 -7z m-217 -38 c18 -21 3 -55 -25 -55 -15 0 -26 7 -30 20 -7 23 10 50 30 50 7 0 18 -7 25 -15z m37 -42 c-4 -3 -7 0 -7 7 0 7 3 10 7 7 3 -4 3 -10 0 -14z m110 -10 c-4 -3 -7 0 -7 7 0 7 3 10 7 7 3 -4 3 -10 0 -14z m-30 -10 c-4 -3 -10 -3 -14 0 -3 4 0 7 7 7 7 0 10 -3 7 -7z"/>
 <path d="M420 830 c0 -5 7 -10 15 -10 8 0 15 5 15 10 0 6 -7 10 -15 10 -8 0 -15 -4 -15 -10z"/>
 <path d="M690 1110 c0 -7 3 -10 7 -7 3 4 3 10 0 14 -4 3 -7 0 -7 -7z"/>
 <path d="M350 1100 c0 -7 3 -10 7 -7 3 4 3 10 0 14 -4 3 -7 0 -7 -7z"/>
 <path d="M820 959 c0 -24 4 -30 17 -27 22 4 30 38 11 49 -22 15 -28 10 -28 -22z"/>
 <path d="M1007 990 c3 -11 7 -20 8 -20 1 0 5 9 8 20 3 12 0 20 -8 20 -8 0 -11 -8 -8 -20z"/>
 </g>

</svg>