<!DOCTYPE svg PUBLIC "-//W3C//DTD SVG 20010904//EN" "http://www.w3.org/TR/2001/REC-SVG-20010904/DTD/svg10.dtd">
<svg version="1.0" xmlns="http://www.w3.org/2000/svg" width="422px" height="186px" viewBox="0 0 4220 1860" preserveAspectRatio="xMidYMid meet">
<g id="layer101" fill="#1e1e1e" stroke="none">
 <path d="M0 930 l0 -930 2110 0 2110 0 0 930 0 930 -2110 0 -2110 0 0 -930z"/>
 </g>
<g id="layer102" fill="#303030" stroke="none">
 <path d="M0 930 l0 -930 2110 0 2110 0 0 930 0 930 -2110 0 -2110 0 0 -930z m1155 625 c269 -81 455 -325 456 -601 1 -114 -14 -189 -56 -279 -34 -74 -119 -195 -138 -195 -6 0 0 11 13 25 19 20 21 27 10 40 -11 13 -9 15 11 15 13 0 30 9 37 20 11 19 10 20 -22 20 -19 0 -38 5 -41 10 -4 6 13 10 43 10 49 0 49 0 70 48 20 46 20 47 1 50 -28 5 -23 22 6 22 14 0 25 2 25 4 0 2 3 11 6 20 5 13 -1 16 -27 18 l-34 1 32 4 c33 4 37 10 49 76 6 34 4 37 -17 38 l-24 2 23 4 c32 6 27 47 -5 49 -17 1 -31 -11 -53 -48 -35 -57 -36 -62 -10 -55 11 3 23 1 26 -4 3 -5 -8 -9 -25 -9 -20 0 -36 -8 -51 -27 -12 -16 -23 -23 -26 -17 -3 6 -18 32 -34 58 -23 35 -36 46 -57 47 -25 2 -25 2 -5 6 27 5 25 12 -13 72 -19 31 -32 41 -53 42 -24 2 -25 2 -4 6 13 3 22 8 20 11 -2 4 -10 19 -17 35 -8 15 -17 27 -20 27 -11 0 -150 -235 -140 -238 16 -6 10 -22 -8 -22 -12 0 -37 -33 -73 -95 -30 -52 -57 -95 -60 -95 -3 0 -23 29 -44 65 -31 53 -43 65 -64 66 -26 1 -26 1 -4 7 21 7 22 8 7 30 -13 17 -26 22 -61 22 -28 0 -43 4 -39 10 3 6 22 10 40 10 l35 0 -28 45 c-19 31 -33 45 -49 45 -12 0 -25 5 -28 10 -3 6 4 10 16 10 20 0 20 1 7 23 -9 12 -28 25 -44 28 -24 5 -25 7 -6 8 24 1 25 2 16 25 -4 11 -19 16 -44 16 -49 0 -62 18 -16 22 l35 3 -30 49 -31 49 -54 -92 c-30 -50 -59 -91 -63 -91 -5 0 -14 14 -21 30 -10 25 -18 30 -46 30 -42 0 -54 18 -15 22 l29 3 -35 54 c-26 41 -37 51 -44 40 -13 -21 -11 -39 6 -39 8 0 15 -4 15 -10 0 -5 -9 -10 -19 -10 -24 0 -27 -4 -36 -57 l-7 -43 49 -2 48 -1 -50 -6 -50 -6 -3 -52 c-3 -49 -1 -53 20 -54 l23 -2 -22 -4 c-29 -6 -31 -39 -3 -48 11 -3 24 -4 29 0 5 3 12 1 16 -5 4 -6 -6 -10 -24 -10 -21 0 -31 -5 -31 -15 0 -25 38 -36 121 -34 44 1 82 -1 86 -5 3 -3 -36 -6 -89 -6 -52 0 -97 -3 -100 -6 -4 -3 1 -25 9 -50 13 -38 19 -44 44 -44 16 0 29 -4 29 -10 0 -5 -9 -10 -20 -10 -22 0 -23 -1 -14 -24 4 -11 19 -16 45 -16 21 0 39 -4 39 -10 0 -5 -14 -10 -30 -10 -28 0 -29 -2 -18 -20 11 -18 24 -20 100 -20 52 0 88 -4 88 -10 0 -6 -32 -10 -77 -10 -74 0 -76 0 -59 -19 14 -15 31 -19 82 -19 36 0 68 -2 71 -6 4 -3 -22 -6 -57 -6 l-63 0 23 -25 c22 -24 29 -25 137 -25 63 0 112 -4 109 -8 -3 -5 -43 -6 -89 -4 -53 3 -87 0 -91 -6 -10 -16 129 -80 212 -97 103 -21 187 -18 307 10 20 5 27 4 20 -2 -19 -19 -108 -34 -205 -34 -154 0 -295 55 -424 163 -67 57 -149 188 -181 288 -37 119 -37 260 -1 375 110 345 459 533 801 430z m1459 -465 c7 0 21 -7 32 -16 18 -15 18 -15 -3 -5 -12 6 -40 11 -62 11 -56 0 -81 -33 -81 -107 0 -45 4 -58 26 -80 23 -23 31 -25 80 -20 62 6 69 2 19 -12 -51 -14 -102 3 -125 42 -23 36 -26 100 -7 137 14 28 75 63 95 55 8 -3 19 -5 26 -5z m-774 -55 c0 -55 0 -55 30 -55 42 0 96 -24 109 -48 14 -26 14 -87 1 -112 -12 -22 -67 -40 -122 -40 l-38 0 2 155 c1 85 6 155 10 155 4 0 8 -25 8 -55z m303 48 l-53 -4 0 -110 c0 -66 -4 -109 -10 -109 -6 0 -10 45 -10 115 l0 115 63 -2 62 -2 -52 -3z m112 -28 l14 -36 63 3 c61 3 63 4 72 36 5 17 13 32 17 32 5 0 -5 -37 -22 -82 -17 -46 -36 -98 -42 -116 -6 -20 -16 -32 -25 -30 -10 2 -102 204 -102 225 0 13 12 -3 25 -32z m558 28 l-63 -4 0 -49 0 -50 50 0 c28 0 50 -4 50 -10 0 -5 -22 -10 -50 -10 l-50 0 0 -45 0 -44 63 -4 62 -3 -72 -2 -73 -2 0 115 0 115 73 -2 72 -2 -62 -3z m210 0 c-40 -2 -73 -6 -73 -9 0 -3 22 -32 50 -65 78 -93 79 -141 3 -147 -30 -2 -43 2 -59 19 l-19 23 25 -17 c33 -23 77 -22 89 2 13 24 -11 71 -74 145 l-47 56 88 -2 89 -2 -72 -3z m230 0 l-63 -4 0 -149 c0 -93 -4 -150 -10 -150 -6 0 -10 58 -10 155 l0 155 73 -2 72 -2 -62 -3z m137 -108 c0 -70 -4 -115 -10 -115 -6 0 -10 45 -10 115 0 70 4 115 10 115 6 0 10 -45 10 -115z m222 0 c26 -63 44 -115 40 -115 -4 0 -25 46 -47 101 -23 55 -45 101 -50 102 -9 0 -62 -128 -79 -188 -3 -10 -8 -17 -11 -14 -4 5 34 121 70 212 14 35 31 14 77 -98z m196 108 l-58 -4 0 -49 0 -50 45 0 c25 0 45 -4 45 -10 0 -5 -20 -10 -45 -10 l-45 0 0 -45 0 -44 58 -4 57 -3 -67 -2 -68 -2 0 115 0 115 68 -2 67 -2 -57 -3z m-3182 -60 c-10 -10 -46 -11 -52 -1 -3 4 9 8 27 8 18 0 29 -3 25 -7z m-81 -63 c-7 -12 -122 -12 -150 0 -13 6 10 9 68 9 56 1 86 -3 82 -9z m132 3 c-10 -9 -57 -10 -57 -1 0 4 14 8 32 8 17 0 28 -3 25 -7z m603 -3 c0 -5 -18 -10 -39 -10 -22 0 -43 5 -46 10 -4 6 12 10 39 10 25 0 46 -4 46 -10z m-590 -56 c0 -2 -62 -3 -137 -2 l-138 2 105 5 c100 6 170 3 170 -5z m78 -1 c-10 -2 -26 -2 -35 0 -10 3 -2 5 17 5 19 0 27 -2 18 -5z m490 0 c-21 -2 -55 -2 -75 0 -21 2 -4 4 37 4 41 0 58 -2 38 -4z m-738 -53 c0 -5 -18 -10 -41 -10 -24 0 -38 4 -34 10 3 6 22 10 41 10 19 0 34 -4 34 -10z m90 0 c0 -5 -12 -10 -26 -10 -14 0 -23 4 -19 10 3 6 15 10 26 10 10 0 19 -4 19 -10z m120 0 c0 -5 -18 -10 -41 -10 -24 0 -38 4 -34 10 3 6 22 10 41 10 19 0 34 -4 34 -10z m490 0 c0 -5 -13 -10 -30 -10 -16 0 -30 5 -30 10 0 6 14 10 30 10 17 0 30 -4 30 -10z m150 -2 c0 -5 -27 -8 -61 -8 -33 0 -58 3 -56 8 3 4 30 7 61 7 31 0 56 -3 56 -7z m-685 -63 c6 -2 -14 -4 -43 -4 -29 -1 -51 3 -48 7 4 7 67 5 91 -3z m720 5 c4 -6 -8 -10 -29 -10 -20 0 -36 5 -36 10 0 6 13 10 29 10 17 0 33 -4 36 -10z m-622 -7 c-13 -2 -33 -2 -45 0 -13 2 -3 4 22 4 25 0 35 -2 23 -4z m460 0 c-29 -2 -77 -2 -105 0 -29 2 -6 3 52 3 58 0 81 -1 53 -3z m-718 -53 c4 -6 -15 -10 -49 -10 -31 0 -56 5 -56 10 0 6 22 10 49 10 28 0 53 -4 56 -10z m205 0 c0 -6 -35 -10 -85 -10 -50 0 -85 4 -85 10 0 6 35 10 85 10 50 0 85 -4 85 -10z m130 0 c0 -5 -23 -10 -51 -10 -31 0 -48 4 -44 10 3 6 26 10 51 10 24 0 44 -4 44 -10z m265 0 c4 -6 -10 -10 -34 -10 -23 0 -41 5 -41 10 0 6 15 10 34 10 19 0 38 -4 41 -10z m235 0 c0 -6 -40 -10 -101 -10 -64 0 -98 4 -94 10 3 6 48 10 101 10 56 0 94 -4 94 -10z m120 0 c0 -5 -20 -10 -45 -10 -25 0 -45 5 -45 10 0 6 20 10 45 10 25 0 45 -4 45 -10z m-950 -60 c0 -5 -9 -10 -20 -10 -11 0 -20 5 -20 10 0 6 9 10 20 10 11 0 20 -4 20 -10z m270 0 c0 -6 -45 -10 -114 -10 -66 0 -117 4 -121 10 -4 6 37 10 114 10 74 0 121 -4 121 -10z m125 0 c-3 -5 -24 -10 -45 -10 -21 0 -42 5 -45 10 -4 6 13 10 45 10 32 0 49 -4 45 -10z m155 2 c0 -9 -47 -8 -57 1 -3 4 8 7 25 7 18 0 32 -4 32 -8z m167 1 c-10 -9 -128 -10 -134 0 -2 4 28 7 68 7 40 0 69 -3 66 -7z m90 0 c-10 -9 -58 -10 -63 -1 -3 4 12 8 32 8 21 0 34 -3 31 -7z m83 -1 c0 -10 -36 -9 -46 1 -4 4 5 7 19 7 15 0 27 -4 27 -8z m85 -2 c-3 -5 -15 -10 -26 -10 -10 0 -19 5 -19 10 0 6 12 10 26 10 14 0 23 -4 19 -10z m-865 -60 c0 -5 -22 -10 -50 -10 -27 0 -50 5 -50 10 0 6 23 10 50 10 28 0 50 -4 50 -10z m130 0 c0 -5 -16 -10 -36 -10 -21 0 -33 4 -29 10 3 6 19 10 36 10 16 0 29 -4 29 -10z m160 0 c0 -6 -28 -10 -65 -10 -37 0 -65 4 -65 10 0 6 28 10 65 10 37 0 65 -4 65 -10z m70 0 c0 -5 -9 -10 -20 -10 -11 0 -20 5 -20 10 0 6 9 10 20 10 11 0 20 -4 20 -10z m100 0 c0 -5 -13 -10 -30 -10 -16 0 -30 5 -30 10 0 6 14 10 30 10 17 0 30 -4 30 -10z m130 0 c0 -5 -22 -10 -50 -10 -27 0 -50 5 -50 10 0 6 23 10 50 10 28 0 50 -4 50 -10z m160 0 c0 -6 -27 -10 -60 -10 -33 0 -60 4 -60 10 0 6 27 10 60 10 33 0 60 -4 60 -10z m9 -39 c11 -7 8 -12 -12 -25 -58 -38 -62 -140 -8 -188 30 -27 30 -28 9 -39 -26 -14 -91 -6 -125 16 -14 9 -33 34 -42 56 -15 36 -19 39 -61 41 l-45 1 42 4 c40 4 43 7 53 43 6 22 16 42 22 46 7 5 3 11 -13 17 -22 10 -21 11 18 17 24 3 46 9 49 13 10 10 96 8 113 -2z m-634 -21 c-3 -5 -24 -10 -45 -10 -21 0 -42 5 -45 10 -4 6 13 10 45 10 32 0 49 -4 45 -10z m90 0 c-3 -5 -15 -10 -25 -10 -10 0 -22 5 -25 10 -4 6 7 10 25 10 18 0 29 -4 25 -10z m190 0 c-3 -5 -37 -10 -75 -10 -38 0 -72 5 -75 10 -4 6 23 10 75 10 52 0 79 -4 75 -10z m120 0 c-3 -5 -21 -10 -40 -10 -19 0 -37 5 -40 10 -4 6 12 10 40 10 28 0 44 -4 40 -10z m-405 -56 c0 -2 -16 -4 -36 -4 -19 0 -33 4 -30 8 5 8 66 4 66 -4z m168 -1 c-27 -2 -69 -2 -95 0 -27 2 -5 3 47 3 52 0 74 -1 48 -3z m205 0 c-23 -2 -64 -2 -90 0 -26 2 -7 3 42 3 50 0 71 -1 48 -3z m-68 -64 c-57 -11 -173 -11 -180 1 -4 6 34 10 107 9 87 -1 104 -3 73 -10z m-172 -56 c-18 -2 -48 -2 -65 0 -18 2 -4 4 32 4 36 0 50 -2 33 -4z m133 0 c-7 -7 -77 -5 -85 3 -2 2 17 4 44 4 27 0 45 -3 41 -7z m77 0 c-7 -2 -19 -2 -25 0 -7 3 -2 5 12 5 14 0 19 -2 13 -5z"/>
 <path d="M830 1554 c-82 -18 -194 -72 -250 -122 l-43 -38 203 -340 c112 -186 209 -347 215 -357 10 -15 17 0 48 95 57 180 56 170 11 168 -22 -1 -42 -2 -46 -1 -3 1 13 37 37 80 l42 79 -43 17 c-24 9 -44 21 -44 27 0 6 43 91 95 188 52 97 95 181 95 187 0 14 -116 33 -191 32 -35 -1 -93 -7 -129 -15z"/>
 <path d="M1071 1352 l-100 -187 37 -17 c20 -10 42 -19 47 -21 6 -2 -7 -36 -27 -74 -21 -39 -38 -73 -38 -77 0 -3 18 -3 40 0 49 8 49 8 9 -120 -17 -54 -29 -100 -26 -102 2 -2 91 140 197 316 l193 320 -26 28 c-29 31 -113 83 -169 106 l-36 16 -101 -188z"/>
 <path d="M483 1336 c-21 -24 -47 -60 -58 -79 l-18 -35 54 -90 c30 -49 56 -88 58 -87 3 4 30 122 31 138 0 4 -11 7 -25 7 -14 0 -25 1 -25 3 0 2 11 36 25 76 18 55 22 78 14 92 -5 10 -11 19 -14 19 -2 0 -21 -20 -42 -44z"/>
 <path d="M1335 1250 l-77 -130 90 -151 c66 -111 91 -146 96 -133 7 25 46 206 46 216 0 4 -13 8 -29 8 -17 0 -32 4 -35 9 -4 5 12 55 34 111 39 102 39 103 21 129 -11 14 -30 36 -44 49 l-24 23 -78 -131z"/>
 <path d="M556 1309 c-36 -96 -36 -99 -16 -99 28 0 30 -9 15 -78 -7 -34 -11 -62 -9 -62 2 0 21 31 44 69 l41 69 -35 58 c-23 37 -37 53 -40 43z"/>
 <path d="M1475 1178 c-17 -45 -31 -86 -33 -90 -2 -4 12 -8 32 -8 20 0 36 -4 36 -8 0 -4 -9 -50 -20 -101 -12 -52 -19 -98 -18 -102 2 -5 29 34 60 86 57 95 58 96 47 143 -11 51 -58 162 -68 162 -4 0 -20 -37 -36 -82z"/>
 <path d="M1572 995 c-10 -22 -9 -25 8 -25 15 0 20 7 20 25 0 14 -4 25 -8 25 -5 0 -14 -11 -20 -25z"/>
 <path d="M1840 880 l0 -80 48 0 c70 0 99 38 81 104 -12 42 -33 56 -88 56 l-41 0 0 -80z"/>
 <path d="M2284 986 c3 -13 15 -46 27 -73 l21 -48 24 60 c32 84 32 85 -27 85 -49 0 -51 -1 -45 -24z"/>
 <path d="M1283 554 c-55 -28 -78 -105 -48 -164 21 -41 53 -60 103 -60 l44 0 -26 30 c-14 17 -28 45 -31 63 -7 38 18 112 41 121 9 3 12 10 9 16 -9 15 -56 12 -92 -6z"/>
 </g>
<g id="layer103" fill="#535353" stroke="none">
 <path d="M0 930 l0 -930 2110 0 2110 0 0 930 0 930 -2110 0 -2110 0 0 -930z m1135 634 c222 -56 400 -236 461 -464 22 -84 23 -235 1 -317 -31 -118 -158 -326 -183 -301 -2 3 5 16 15 30 15 19 17 28 9 36 -9 9 -7 12 8 12 12 0 29 9 39 20 18 20 17 20 -23 20 -58 0 -53 18 6 22 45 3 48 5 69 48 21 44 21 45 2 48 -28 5 -23 22 6 22 14 0 25 2 25 4 0 2 3 11 6 20 5 13 -1 16 -27 18 l-34 1 32 4 c24 3 34 10 37 26 3 12 7 35 11 50 5 24 2 30 -16 34 l-23 6 22 8 c32 12 28 39 -5 39 -22 0 -33 -9 -50 -40 -13 -21 -23 -41 -23 -43 0 -3 10 -8 23 -12 20 -7 19 -8 -11 -12 -23 -3 -36 -12 -44 -29 -16 -35 -30 -30 -63 29 -23 39 -38 54 -60 58 -24 5 -25 7 -7 8 12 0 22 3 22 6 0 3 -14 27 -31 55 -24 39 -37 50 -57 51 -25 1 -26 1 -5 7 l23 7 -21 34 c-11 18 -21 32 -23 30 -2 -2 -35 -56 -74 -121 -61 -100 -69 -117 -54 -124 14 -6 13 -8 -8 -13 -18 -5 -40 -32 -78 -96 -29 -50 -56 -91 -61 -93 -5 -2 -26 27 -47 63 -33 56 -42 65 -67 65 -15 0 -26 4 -22 10 3 5 12 7 20 3 18 -6 19 1 5 28 -8 14 -21 19 -55 19 -25 0 -45 5 -45 10 0 6 16 10 35 10 19 0 35 2 35 6 0 3 -10 23 -22 44 -18 31 -29 40 -50 40 -16 0 -28 5 -28 10 0 6 10 10 21 10 20 0 20 2 7 23 -9 12 -28 25 -44 28 -24 5 -25 7 -6 8 50 2 13 41 -40 41 -21 0 -38 5 -38 10 0 6 16 10 35 10 l35 0 -28 45 c-15 25 -30 45 -34 45 -4 0 -28 -38 -55 -85 -26 -46 -52 -85 -58 -85 -5 0 -18 14 -27 30 -14 24 -24 30 -53 30 -19 0 -35 5 -35 10 0 6 11 10 25 10 14 0 25 3 25 7 0 3 -14 29 -32 56 -27 42 -33 47 -39 31 -11 -29 -11 -31 14 -39 21 -8 21 -8 -5 -12 -22 -3 -30 -12 -38 -41 -16 -59 -14 -62 38 -64 l47 -1 -50 -6 -50 -6 0 -50 c0 -46 2 -50 25 -54 l25 -4 -25 -6 c-14 -4 -25 -13 -25 -21 0 -8 11 -17 25 -18 39 -6 49 -22 12 -22 -21 0 -32 -5 -32 -15 0 -26 39 -37 120 -34 44 2 82 0 86 -4 4 -4 -36 -7 -89 -7 -108 0 -109 -1 -83 -65 12 -27 21 -35 40 -35 15 0 26 -4 26 -10 0 -5 -9 -10 -20 -10 -11 0 -20 -4 -20 -8 0 -17 26 -32 56 -32 18 0 36 -4 39 -10 4 -6 -7 -10 -24 -10 -33 0 -39 -8 -19 -28 8 -8 45 -12 101 -12 56 0 86 -4 82 -10 -3 -6 -40 -10 -82 -10 -66 0 -74 -2 -63 -15 9 -11 33 -15 86 -15 43 0 74 -4 74 -10 0 -6 -28 -10 -62 -10 l-63 -1 28 -24 c26 -23 35 -25 138 -25 66 0 109 -4 109 -10 0 -6 -39 -10 -97 -10 l-98 0 40 -25 c22 -14 76 -37 120 -51 65 -22 99 -27 180 -28 55 0 124 6 154 12 30 7 56 10 59 7 9 -9 -48 -24 -129 -34 -235 -30 -472 80 -605 280 -145 218 -145 500 0 718 153 229 429 333 701 265z m1508 -481 c9 -2 17 -8 17 -12 0 -5 -17 -4 -38 2 -52 14 -89 3 -107 -33 -31 -61 -9 -154 41 -166 14 -4 44 -4 67 0 35 5 39 4 22 -6 -10 -6 -39 -11 -63 -11 -34 0 -49 6 -70 27 -24 23 -27 34 -27 90 0 54 4 68 24 90 32 34 64 38 134 19z m-803 -48 c0 -55 0 -55 30 -55 42 0 96 -24 109 -48 14 -26 14 -87 1 -112 -12 -22 -67 -40 -123 -40 l-37 0 2 155 c1 85 5 155 10 155 4 0 8 -25 8 -55z m303 48 l-53 -4 0 -110 c0 -66 -4 -109 -10 -109 -6 0 -10 45 -10 115 l0 115 63 -2 62 -2 -52 -3z m113 -28 c14 -34 15 -35 73 -35 59 0 60 0 72 35 7 19 17 35 22 35 5 0 6 -8 2 -17 -4 -10 -23 -62 -42 -116 -26 -72 -40 -97 -51 -95 -13 3 -72 129 -97 209 -11 33 5 21 21 -16z m557 28 l-63 -4 0 -49 0 -50 50 0 c28 0 50 -4 50 -10 0 -5 -22 -10 -50 -10 l-50 0 0 -45 0 -44 63 -4 62 -3 -72 -2 -73 -2 0 115 0 115 73 -2 72 -2 -62 -3z m209 -2 l-73 -6 55 -70 c58 -72 70 -111 41 -135 -27 -23 -115 -7 -115 20 0 5 13 2 28 -7 18 -10 38 -14 55 -9 42 10 36 53 -15 117 -24 28 -51 62 -61 75 l-19 24 89 -2 88 -2 -73 -5z m231 2 l-63 -4 0 -149 c0 -93 -4 -150 -10 -150 -6 0 -10 58 -10 155 l0 155 73 -2 72 -2 -62 -3z m137 -108 c0 -70 -4 -115 -10 -115 -6 0 -10 45 -10 115 0 70 4 115 10 115 6 0 10 -45 10 -115z m204 48 c56 -136 66 -163 57 -163 -5 0 -13 12 -19 28 -29 83 -75 182 -82 175 -4 -4 -22 -48 -40 -98 -31 -85 -50 -123 -50 -98 0 6 16 53 35 105 20 51 38 99 40 106 10 29 33 7 59 -55z m219 60 l-63 -4 0 -49 0 -50 45 0 c25 0 45 -4 45 -10 0 -5 -20 -10 -45 -10 l-45 0 0 -45 0 -44 58 -4 57 -3 -67 -2 -68 -2 0 115 0 115 73 -2 72 -2 -62 -3z m-3188 -63 c-3 -5 -15 -10 -25 -10 -10 0 -22 5 -25 10 -4 6 7 10 25 10 18 0 29 -4 25 -10z m-75 -60 c0 -12 -127 -12 -155 0 -13 6 9 9 68 9 52 1 87 -3 87 -9z m130 0 c0 -5 -13 -10 -30 -10 -16 0 -30 5 -30 10 0 6 14 10 30 10 17 0 30 -4 30 -10z m600 0 c0 -5 -20 -10 -45 -10 -25 0 -45 5 -45 10 0 6 20 10 45 10 25 0 45 -4 45 -10z m-605 -51 c13 -1 9 -4 -10 -8 -16 -3 -79 -4 -140 -1 l-110 5 100 6 c55 3 109 4 120 2 11 -1 29 -3 40 -4z m608 0 c7 0 3 -4 -8 -8 -11 -4 -45 -5 -75 -2 l-55 5 50 7 c28 3 56 4 63 2 8 -1 19 -3 25 -4z m-515 -6 c-10 -2 -26 -2 -35 0 -10 3 -2 5 17 5 19 0 27 -2 18 -5z m-248 -53 c0 -5 -18 -10 -40 -10 -22 0 -40 5 -40 10 0 6 18 10 40 10 22 0 40 -4 40 -10z m90 0 c0 -5 -11 -10 -25 -10 -14 0 -25 5 -25 10 0 6 11 10 25 10 14 0 25 -4 25 -10z m120 0 c0 -5 -18 -10 -41 -10 -24 0 -38 4 -34 10 3 6 22 10 41 10 19 0 34 -4 34 -10z m490 0 c0 -5 -13 -10 -30 -10 -16 0 -30 5 -30 10 0 6 14 10 30 10 17 0 30 -4 30 -10z m150 0 c0 -6 -27 -10 -60 -10 -33 0 -60 4 -60 10 0 6 27 10 60 10 33 0 60 -4 60 -10z m-685 -65 c6 -2 -14 -4 -43 -4 -29 -1 -51 3 -48 7 4 7 67 5 91 -3z m605 1 c8 -2 -37 -4 -100 -5 -63 0 -109 3 -102 7 11 8 166 6 202 -2z m115 4 c4 -6 -8 -10 -29 -10 -20 0 -36 5 -36 10 0 6 13 10 29 10 17 0 33 -4 36 -10z m-612 -7 c-13 -2 -35 -2 -50 0 -16 2 -5 4 22 4 28 0 40 -2 28 -4z m-263 -53 c0 -6 -27 -10 -61 -10 -37 0 -58 4 -54 10 3 6 31 10 61 10 30 0 54 -4 54 -10z m200 0 c0 -6 -35 -10 -85 -10 -50 0 -85 4 -85 10 0 6 35 10 85 10 50 0 85 -4 85 -10z m135 0 c4 -6 -15 -10 -49 -10 -31 0 -56 5 -56 10 0 6 22 10 49 10 28 0 53 -4 56 -10z m265 0 c0 -5 -18 -10 -40 -10 -22 0 -40 5 -40 10 0 6 18 10 40 10 22 0 40 -4 40 -10z m230 0 c0 -6 -40 -10 -100 -10 -60 0 -100 4 -100 10 0 6 40 10 100 10 60 0 100 -4 100 -10z m125 0 c4 -6 -13 -10 -44 -10 -28 0 -51 5 -51 10 0 6 20 10 44 10 25 0 48 -4 51 -10z m-955 -60 c0 -5 -11 -10 -25 -10 -14 0 -25 5 -25 10 0 6 11 10 25 10 14 0 25 -4 25 -10z m270 0 c0 -6 -47 -10 -120 -10 -73 0 -120 4 -120 10 0 6 47 10 120 10 73 0 120 -4 120 -10z m125 0 c-3 -5 -26 -10 -51 -10 -24 0 -44 5 -44 10 0 6 23 10 51 10 31 0 48 -4 44 -10z m160 0 c-3 -5 -17 -10 -30 -10 -13 0 -27 5 -30 10 -4 6 8 10 30 10 22 0 34 -4 30 -10z m160 0 c-3 -5 -33 -10 -65 -10 -32 0 -62 5 -65 10 -4 6 20 10 65 10 45 0 69 -4 65 -10z m95 0 c0 -5 -16 -10 -35 -10 -19 0 -35 5 -35 10 0 6 16 10 35 10 19 0 35 -4 35 -10z m85 0 c-3 -5 -15 -10 -25 -10 -10 0 -22 5 -25 10 -4 6 7 10 25 10 18 0 29 -4 25 -10z m85 0 c0 -5 -11 -10 -24 -10 -14 0 -28 5 -31 10 -4 6 7 10 24 10 17 0 31 -4 31 -10z m-870 -60 c0 -5 -22 -10 -50 -10 -27 0 -50 5 -50 10 0 6 23 10 50 10 28 0 50 -4 50 -10z m130 0 c0 -5 -16 -10 -35 -10 -19 0 -35 5 -35 10 0 6 16 10 35 10 19 0 35 -4 35 -10z m160 0 c0 -6 -28 -10 -65 -10 -37 0 -65 4 -65 10 0 6 28 10 65 10 37 0 65 -4 65 -10z m75 0 c4 -6 -5 -10 -19 -10 -14 0 -26 5 -26 10 0 6 9 10 19 10 11 0 23 -4 26 -10z m95 0 c0 -5 -13 -10 -30 -10 -16 0 -30 5 -30 10 0 6 14 10 30 10 17 0 30 -4 30 -10z m130 0 c0 -5 -22 -10 -50 -10 -27 0 -50 5 -50 10 0 6 23 10 50 10 28 0 50 -4 50 -10z m160 0 c0 -6 -28 -10 -65 -10 -37 0 -65 4 -65 10 0 6 28 10 65 10 37 0 65 -4 65 -10z m19 -40 c2 0 -13 -18 -33 -40 -27 -30 -36 -49 -36 -76 0 -43 23 -89 52 -105 21 -11 21 -12 3 -25 -49 -36 -144 -1 -177 66 -15 30 -24 36 -60 41 l-43 6 42 1 c40 2 43 4 53 42 6 21 16 42 22 46 7 5 3 11 -13 17 -23 10 -22 11 16 18 22 4 56 12 75 17 19 4 48 5 65 0 16 -4 32 -8 34 -8z m-639 -20 c0 -5 -22 -10 -50 -10 -27 0 -50 5 -50 10 0 6 23 10 50 10 28 0 50 -4 50 -10z m85 0 c-3 -5 -17 -10 -31 -10 -13 0 -24 5 -24 10 0 6 14 10 31 10 17 0 28 -4 24 -10z m195 0 c0 -6 -31 -10 -74 -10 -41 0 -78 5 -81 10 -4 6 23 10 74 10 47 0 81 -4 81 -10z m120 0 c0 -5 -20 -10 -45 -10 -25 0 -45 5 -45 10 0 6 20 10 45 10 25 0 45 -4 45 -10z m-410 -50 c0 -5 -16 -10 -36 -10 -21 0 -33 4 -29 10 3 6 19 10 36 10 16 0 29 -4 29 -10z m168 -7 c-27 -2 -69 -2 -95 0 -27 2 -5 3 47 3 52 0 74 -1 48 -3z m210 0 c-27 -2 -69 -2 -95 0 -27 2 -5 3 47 3 52 0 74 -1 48 -3z m-73 -64 c-57 -11 -173 -11 -180 1 -4 6 34 10 107 9 87 -1 104 -3 73 -10z m-149 -57 c-2 -4 -33 -5 -68 -2 l-63 4 60 6 c62 5 78 4 71 -8z m111 1 c-4 -3 -23 -6 -42 -6 -19 0 -38 3 -42 6 -3 4 15 7 42 7 27 0 45 -3 42 -7z m76 0 c-7 -2 -21 -2 -30 0 -10 3 -4 5 12 5 17 0 24 -2 18 -5z"/>
 <path d="M845 1555 c-85 -19 -154 -46 -217 -88 -106 -71 -118 -28 122 -426 116 -193 213 -351 216 -351 4 0 84 251 84 264 0 5 -18 6 -39 3 -22 -3 -42 -3 -45 0 -3 3 13 38 34 78 22 39 40 74 40 78 0 3 -20 15 -44 26 l-45 19 100 188 c55 103 97 190 92 195 -13 12 -122 29 -182 28 -31 0 -83 -7 -116 -14z"/>
 <path d="M1164 1518 c-5 -7 -50 -89 -100 -183 l-91 -170 43 -19 c24 -10 44 -23 44 -29 0 -6 -16 -39 -35 -74 -19 -35 -35 -65 -35 -67 0 -2 20 -1 45 2 36 4 44 2 41 -9 -21 -61 -65 -213 -63 -215 1 -2 90 142 197 318 l194 321 -40 34 c-80 70 -184 117 -200 91z"/>
 <path d="M483 1335 c-21 -25 -47 -60 -57 -79 l-18 -34 52 -86 c29 -47 56 -83 60 -81 4 3 10 24 14 47 4 24 9 53 13 66 4 19 1 22 -21 22 -14 0 -26 1 -26 3 0 2 11 36 25 76 21 63 23 76 11 93 -13 18 -15 17 -53 -27z"/>
 <path d="M1337 1251 l-78 -131 87 -145 c48 -80 90 -142 94 -138 4 4 15 46 24 93 10 47 20 95 23 108 5 20 1 22 -31 22 -20 0 -36 4 -36 10 0 5 16 51 35 102 19 51 35 100 35 109 0 9 -17 35 -37 58 l-38 42 -78 -130z"/>
 <path d="M550 1286 c-23 -61 -23 -73 0 -79 18 -4 21 -11 17 -29 -3 -13 -9 -41 -12 -63 l-7 -40 40 65 41 65 -26 45 c-36 64 -41 67 -53 36z"/>
 <path d="M1473 1168 l-31 -83 34 -3 c40 -4 39 -2 14 -112 -11 -47 -20 -92 -20 -100 0 -8 27 30 60 86 l60 101 -21 69 c-23 76 -45 124 -57 124 -4 0 -22 -37 -39 -82z"/>
 <path d="M1570 990 c-9 -17 -8 -20 10 -20 13 0 20 7 20 20 0 11 -4 20 -10 20 -5 0 -14 -9 -20 -20z"/>
 <path d="M1840 880 l0 -80 44 0 c54 0 87 24 88 65 2 67 -27 95 -97 95 l-35 0 0 -80z"/>
 <path d="M2280 1003 c0 -15 45 -123 51 -123 6 0 49 109 49 124 0 3 -22 6 -50 6 -27 0 -50 -3 -50 -7z"/>
 <path d="M1283 550 c-34 -21 -63 -66 -63 -100 0 -65 55 -120 120 -120 36 0 36 2 8 41 -16 22 -23 45 -23 77 0 33 7 57 23 79 12 17 22 34 22 37 0 14 -57 5 -87 -14z"/>
 </g>
<g id="layer104" fill="#727272" stroke="none">
 <path d="M0 930 l0 -930 2110 0 2110 0 0 930 0 930 -2110 0 -2110 0 0 -930z m1098 644 c236 -48 420 -217 494 -454 34 -110 32 -263 -5 -376 -37 -112 -151 -283 -174 -261 -3 4 3 17 15 30 17 18 19 26 10 35 -9 9 -7 12 8 12 20 0 44 17 44 32 0 4 -16 8 -35 8 -19 0 -35 5 -35 10 0 6 20 10 45 10 42 0 46 2 65 40 24 47 25 60 5 60 -8 0 -15 5 -15 10 0 6 11 10 25 10 18 0 25 5 25 20 0 15 -7 20 -25 20 -14 0 -25 5 -25 10 0 6 13 10 29 10 17 0 31 6 35 16 11 30 6 67 -11 80 -17 13 -17 14 5 20 30 9 28 34 -3 34 -18 0 -32 -11 -50 -40 -30 -48 -30 -50 -5 -50 11 0 20 -4 20 -10 0 -5 -13 -10 -30 -10 -23 0 -33 -7 -45 -30 -9 -16 -17 -30 -20 -30 -2 0 -19 25 -37 55 -24 40 -39 55 -55 55 -28 0 -38 16 -17 28 15 8 14 13 -7 50 -19 33 -30 42 -51 42 -16 0 -28 5 -28 10 0 6 7 10 15 10 8 0 15 6 15 13 -1 13 -24 47 -33 47 -3 0 -36 -50 -72 -110 -54 -90 -65 -114 -55 -125 10 -12 9 -15 -8 -15 -16 0 -35 -24 -78 -95 -31 -52 -60 -95 -64 -95 -5 0 -25 29 -46 64 -31 54 -43 66 -68 69 -29 4 -29 5 -9 12 18 6 21 11 12 26 -7 14 -21 19 -54 19 -25 0 -45 5 -45 10 0 6 16 10 35 10 19 0 35 2 35 5 0 3 -11 23 -25 45 -18 29 -32 40 -50 40 -14 0 -25 5 -25 10 0 6 7 10 15 10 17 0 18 2 9 24 -4 10 -18 16 -35 16 -16 0 -29 5 -29 10 0 6 9 10 20 10 18 0 19 3 10 20 -8 15 -21 20 -50 20 -22 0 -40 5 -40 10 0 6 14 10 30 10 17 0 30 2 30 6 0 9 -45 84 -50 84 -3 0 -30 -40 -59 -90 -29 -49 -55 -90 -56 -90 -2 0 -13 16 -25 35 -18 29 -28 35 -56 35 -19 0 -34 5 -34 10 0 6 11 10 25 10 31 0 31 1 -1 53 -35 55 -34 54 -44 37 -14 -22 -12 -27 13 -35 22 -8 21 -8 -4 -12 -22 -3 -29 -12 -37 -46 -13 -48 -6 -57 46 -57 17 0 32 -4 32 -10 0 -5 -20 -10 -44 -10 -48 0 -56 -9 -56 -61 0 -22 5 -29 19 -29 28 0 37 -20 12 -27 -29 -8 -27 -33 3 -33 14 0 28 -4 31 -10 3 -6 -5 -10 -19 -10 -28 0 -38 -10 -27 -28 4 -7 43 -12 99 -14 51 -2 93 -7 95 -12 1 -5 -40 -8 -90 -7 -104 2 -106 1 -79 -64 12 -27 21 -35 40 -35 15 0 26 -4 26 -10 0 -5 -9 -10 -20 -10 -18 0 -19 -3 -10 -20 7 -14 21 -20 45 -20 18 0 37 -4 40 -10 4 -6 -7 -10 -24 -10 -33 0 -39 -8 -19 -28 8 -8 45 -12 101 -12 56 0 86 -4 82 -10 -3 -6 -40 -10 -82 -10 -66 0 -74 -2 -63 -15 9 -11 33 -15 86 -15 40 0 76 -4 79 -10 4 -6 -17 -10 -54 -10 -65 0 -75 -9 -39 -34 17 -12 50 -16 137 -16 137 0 142 -18 6 -22 l-90 -3 61 -32 c133 -69 284 -85 457 -47 15 4 27 2 27 -3 0 -17 -120 -38 -215 -38 -165 1 -317 66 -441 189 -128 128 -189 275 -189 456 0 170 57 316 171 439 155 167 380 241 602 195z m742 -533 l0 -58 51 -5 c70 -7 102 -39 102 -103 0 -67 -24 -88 -108 -93 l-65 -4 0 161 c0 101 4 161 10 161 6 0 10 -26 10 -59z m350 49 c0 -5 -22 -10 -50 -10 l-50 0 0 -115 c0 -70 -4 -115 -10 -115 -6 0 -10 48 -10 125 l0 125 60 0 c33 0 60 -4 60 -10z m66 -33 c10 -31 13 -32 71 -35 l60 -3 17 43 c10 24 20 38 22 32 6 -15 -79 -237 -92 -241 -11 -4 -104 210 -104 237 0 20 14 3 26 -33z m373 32 c17 -6 31 -15 31 -21 0 -6 -7 -7 -17 -3 -83 36 -143 -2 -143 -90 0 -88 60 -126 143 -90 10 4 17 3 17 -4 0 -18 -51 -33 -90 -27 -54 8 -90 54 -90 116 0 63 17 100 55 116 37 16 54 17 94 3z m241 1 c0 -6 -27 -10 -60 -10 l-60 0 0 -50 0 -50 50 0 c28 0 50 -4 50 -10 0 -5 -22 -10 -50 -10 l-50 0 0 -45 0 -45 60 0 c33 0 60 -4 60 -10 0 -6 -30 -10 -70 -10 l-70 0 0 125 0 125 70 0 c40 0 70 -4 70 -10z m225 0 c3 -5 -25 -10 -69 -12 l-75 -3 55 -69 c64 -79 70 -119 22 -145 -24 -14 -30 -14 -62 2 -20 9 -36 21 -36 27 0 5 16 2 36 -7 40 -20 67 -10 72 26 4 22 -45 96 -92 140 -45 42 -35 51 58 51 47 0 87 -4 91 -10z m215 0 c0 -6 -27 -10 -60 -10 l-60 0 0 -150 c0 -93 -4 -150 -10 -150 -6 0 -10 60 -10 160 l0 160 70 0 c40 0 70 -4 70 -10z m80 -115 c0 -77 -4 -125 -10 -125 -6 0 -10 48 -10 125 0 77 4 125 10 125 6 0 10 -48 10 -125z m222 4 c51 -124 53 -129 38 -129 -5 0 -10 4 -10 10 0 19 -83 210 -89 205 -3 -4 -22 -52 -42 -108 -20 -56 -41 -103 -48 -105 -6 -2 5 41 25 95 20 54 41 111 46 126 6 15 15 26 22 24 6 -2 32 -55 58 -118z m253 111 c4 -6 -17 -10 -54 -10 l-61 0 0 -50 0 -50 45 0 c25 0 45 -4 45 -10 0 -5 -20 -10 -45 -10 l-45 0 0 -45 0 -45 61 0 c37 0 58 -4 54 -10 -3 -5 -35 -10 -71 -10 l-64 0 0 125 0 125 64 0 c36 0 68 -4 71 -10z m-3240 -70 c-3 -5 -15 -10 -25 -10 -10 0 -22 5 -25 10 -4 6 7 10 25 10 18 0 29 -4 25 -10z m-75 -60 c0 -6 -35 -10 -85 -10 -50 0 -85 4 -85 10 0 6 35 10 85 10 50 0 85 -4 85 -10z m130 0 c0 -5 -13 -10 -30 -10 -16 0 -30 5 -30 10 0 6 14 10 30 10 17 0 30 -4 30 -10z m600 0 c0 -5 -20 -10 -45 -10 -25 0 -45 5 -45 10 0 6 20 10 45 10 25 0 45 -4 45 -10z m-590 -55 c0 -10 -233 -20 -258 -10 -7 2 -10 10 -7 15 9 14 265 9 265 -5z m85 5 c8 -13 -20 -24 -41 -16 -20 8 -9 26 16 26 10 0 22 -5 25 -10z m513 -2 c-5 -14 -109 -24 -135 -14 -32 13 3 26 68 26 52 0 70 -3 67 -12z m-763 -58 c4 -6 -12 -10 -39 -10 -25 0 -46 5 -46 10 0 6 18 10 39 10 22 0 43 -4 46 -10z m85 0 c0 -5 -11 -10 -25 -10 -14 0 -25 5 -25 10 0 6 11 10 25 10 14 0 25 -4 25 -10z m120 0 c0 -5 -18 -10 -41 -10 -24 0 -38 4 -34 10 3 6 22 10 41 10 19 0 34 -4 34 -10z m490 0 c0 -5 -16 -10 -36 -10 -21 0 -33 4 -29 10 3 6 19 10 36 10 16 0 29 -4 29 -10z m155 0 c4 -6 -18 -10 -59 -10 -37 0 -66 4 -66 10 0 6 26 10 59 10 33 0 63 -4 66 -10z m-680 -60 c4 -6 -15 -10 -49 -10 -31 0 -56 5 -56 10 0 6 22 10 49 10 28 0 53 -4 56 -10z m110 -5 c0 -5 -19 -11 -42 -13 -40 -3 -53 5 -36 22 11 10 78 3 78 -9z m489 6 c6 -9 -177 -21 -201 -13 -7 2 -10 8 -7 13 7 12 201 12 208 0z m116 -1 c0 -5 -18 -10 -40 -10 -22 0 -40 5 -40 10 0 6 18 10 40 10 22 0 40 -4 40 -10z m-880 -60 c0 -6 -27 -10 -60 -10 -33 0 -60 4 -60 10 0 6 27 10 60 10 33 0 60 -4 60 -10z m200 0 c0 -6 -35 -10 -85 -10 -50 0 -85 4 -85 10 0 6 35 10 85 10 50 0 85 -4 85 -10z m140 0 c0 -5 -25 -10 -55 -10 -30 0 -55 5 -55 10 0 6 25 10 55 10 30 0 55 -4 55 -10z m260 0 c0 -5 -18 -10 -40 -10 -22 0 -40 5 -40 10 0 6 18 10 40 10 22 0 40 -4 40 -10z m230 0 c0 -6 -40 -10 -100 -10 -60 0 -100 4 -100 10 0 6 40 10 100 10 60 0 100 -4 100 -10z m130 0 c0 -5 -22 -10 -50 -10 -27 0 -50 5 -50 10 0 6 23 10 50 10 28 0 50 -4 50 -10z m-960 -60 c0 -5 -11 -10 -25 -10 -14 0 -25 5 -25 10 0 6 11 10 25 10 14 0 25 -4 25 -10z m270 0 c0 -6 -47 -10 -120 -10 -73 0 -120 4 -120 10 0 6 47 10 120 10 73 0 120 -4 120 -10z m130 0 c0 -5 -22 -10 -50 -10 -27 0 -50 5 -50 10 0 6 23 10 50 10 28 0 50 -4 50 -10z m155 0 c-3 -5 -19 -10 -36 -10 -16 0 -29 5 -29 10 0 6 16 10 36 10 21 0 33 -4 29 -10z m160 0 c-3 -5 -33 -10 -65 -10 -32 0 -62 5 -65 10 -4 6 20 10 65 10 45 0 69 -4 65 -10z m95 0 c0 -5 -16 -10 -35 -10 -19 0 -35 5 -35 10 0 6 16 10 35 10 19 0 35 -4 35 -10z m85 0 c-3 -5 -17 -10 -31 -10 -13 0 -24 5 -24 10 0 6 14 10 31 10 17 0 28 -4 24 -10z m85 0 c0 -5 -11 -10 -24 -10 -14 0 -28 5 -31 10 -4 6 7 10 24 10 17 0 31 -4 31 -10z m-870 -60 c0 -5 -25 -10 -56 -10 -34 0 -53 4 -49 10 3 6 28 10 56 10 27 0 49 -4 49 -10z m130 0 c0 -5 -16 -10 -35 -10 -19 0 -35 5 -35 10 0 6 16 10 35 10 19 0 35 -4 35 -10z m160 0 c0 -6 -28 -10 -65 -10 -37 0 -65 4 -65 10 0 6 28 10 65 10 37 0 65 -4 65 -10z m80 0 c0 -5 -11 -10 -25 -10 -14 0 -25 5 -25 10 0 6 11 10 25 10 14 0 25 -4 25 -10z m90 0 c0 -5 -13 -10 -30 -10 -16 0 -30 5 -30 10 0 6 14 10 30 10 17 0 30 -4 30 -10z m130 0 c0 -5 -22 -10 -50 -10 -27 0 -50 5 -50 10 0 6 23 10 50 10 28 0 50 -4 50 -10z m160 0 c0 -6 -28 -10 -65 -10 -37 0 -65 4 -65 10 0 6 28 10 65 10 37 0 65 -4 65 -10z m15 -41 c6 -6 1 -15 -13 -25 -28 -19 -52 -65 -52 -99 0 -35 16 -65 48 -92 32 -27 26 -35 -35 -40 -57 -6 -109 23 -133 74 -13 27 -21 32 -55 35 -50 4 -52 22 -3 26 31 3 38 7 43 32 4 17 11 32 16 35 14 9 11 25 -6 25 -27 0 -15 20 13 21 15 0 43 7 62 14 36 14 97 11 115 -6z m-635 -19 c0 -5 -22 -10 -50 -10 -27 0 -50 5 -50 10 0 6 23 10 50 10 28 0 50 -4 50 -10z m85 0 c-3 -5 -17 -10 -31 -10 -13 0 -24 5 -24 10 0 6 14 10 31 10 17 0 28 -4 24 -10z m195 0 c0 -6 -33 -10 -80 -10 -47 0 -80 4 -80 10 0 6 33 10 80 10 47 0 80 -4 80 -10z m120 0 c0 -5 -20 -10 -45 -10 -25 0 -45 5 -45 10 0 6 20 10 45 10 25 0 45 -4 45 -10z m-405 -50 c4 -6 -10 -10 -35 -10 -25 0 -39 4 -35 10 3 6 19 10 35 10 16 0 32 -4 35 -10z m210 0 c4 -6 -28 -10 -90 -10 -62 0 -94 4 -90 10 3 6 44 10 90 10 46 0 87 -4 90 -10z m200 -5 c0 -11 -138 -20 -162 -11 -8 3 -11 11 -8 16 9 14 170 9 170 -5z m-80 -65 c-3 -6 -52 -10 -111 -10 -63 0 -104 4 -104 10 0 6 44 10 111 10 71 0 108 -4 104 -10z m-182 -56 c2 -10 -88 -18 -110 -10 -8 3 -12 9 -10 13 7 11 116 7 120 -3z m111 -5 c-7 -11 -71 -12 -78 0 -9 14 1 17 43 13 23 -2 38 -8 35 -13z m86 0 c0 -12 -37 -12 -44 0 -3 4 -3 11 0 14 8 7 44 -4 44 -14z"/>
 <path d="M895 1563 c-118 -18 -242 -72 -319 -136 l-38 -33 207 -344 c114 -190 211 -349 215 -353 6 -7 45 104 87 247 5 17 1 18 -41 12 -25 -4 -46 -4 -46 0 0 4 18 40 40 80 22 40 40 75 40 78 0 2 -20 12 -45 22 -25 9 -45 19 -45 21 0 2 45 88 100 190 55 103 100 188 100 189 0 16 -195 37 -255 27z"/>
 <path d="M1142 1478 c-61 -110 -164 -309 -161 -312 2 -2 23 -13 45 -24 l42 -21 -39 -74 -39 -74 40 7 c22 4 42 4 45 0 2 -4 -11 -55 -30 -115 -18 -59 -30 -104 -25 -99 5 5 93 148 196 318 l187 310 -39 33 c-39 33 -163 103 -182 103 -6 0 -24 -24 -40 -52z"/>
 <path d="M481 1330 c-79 -100 -79 -97 -19 -194 29 -47 54 -83 56 -81 8 8 29 124 24 130 -3 3 -14 5 -24 5 -23 0 -23 8 2 70 22 55 25 87 11 109 -7 10 -19 0 -50 -39z"/>
 <path d="M1338 1250 l-77 -130 87 -145 c47 -79 88 -142 90 -140 2 2 12 43 23 92 11 48 21 98 24 111 5 20 2 22 -30 22 -21 0 -35 5 -35 13 0 6 16 54 35 105 19 51 35 98 35 105 0 6 -17 31 -38 55 l-37 42 -77 -130z"/>
 <path d="M551 1287 c-24 -63 -25 -77 -2 -77 24 0 25 -7 10 -69 -5 -24 -8 -46 -5 -48 5 -5 66 101 66 116 0 6 -13 32 -29 58 l-30 48 -10 -28z"/>
 <path d="M1477 1177 c-15 -41 -27 -79 -27 -85 0 -7 14 -12 30 -12 36 0 36 0 11 -115 -11 -49 -19 -91 -17 -92 2 -2 27 36 56 84 47 80 52 92 46 132 -6 44 -53 161 -65 161 -4 0 -19 -33 -34 -73z"/>
 <path d="M1576 994 c-8 -20 0 -32 14 -18 5 5 5 15 1 22 -6 11 -10 10 -15 -4z"/>
 <path d="M1842 883 l3 -78 38 -3 c57 -5 87 19 87 69 0 55 -34 89 -90 89 l-41 0 3 -77z"/>
 <path d="M2280 1001 c0 -13 50 -124 55 -120 5 6 45 113 45 122 0 4 -22 7 -50 7 -27 0 -50 -4 -50 -9z"/>
 <path d="M1291 553 c-79 -39 -92 -131 -27 -190 26 -24 45 -33 71 -33 41 0 43 5 13 38 -32 33 -32 118 -1 160 33 45 8 56 -56 25z"/>
 </g>
<g id="layer105" fill="#919191" stroke="none">
 <path d="M0 930 l0 -930 2110 0 2110 0 0 930 0 930 -2110 0 -2110 0 0 -930z m1155 632 c266 -84 444 -310 461 -587 8 -115 -12 -210 -65 -319 -40 -83 -123 -187 -137 -173 -4 4 3 18 16 32 13 14 18 25 12 25 -7 0 -12 5 -12 10 0 6 8 10 18 10 19 0 42 18 42 32 0 4 -16 8 -35 8 -19 0 -35 5 -35 10 0 6 20 10 45 10 42 0 46 2 65 40 24 47 25 60 5 60 -8 0 -15 5 -15 10 0 6 11 10 25 10 18 0 25 5 25 20 0 15 -7 20 -25 20 -14 0 -25 5 -25 10 0 6 13 10 29 10 21 0 30 6 35 23 10 38 7 67 -8 67 -27 0 -28 20 -2 30 33 12 34 30 2 30 -19 0 -31 -11 -50 -42 -25 -42 -25 -43 -5 -46 27 -5 19 -26 -12 -30 -13 -2 -34 -15 -45 -29 l-21 -25 -34 56 c-25 40 -40 56 -56 56 -28 0 -38 16 -17 28 14 8 13 13 -10 50 -19 31 -33 42 -51 42 -16 0 -25 6 -25 15 0 8 7 15 15 15 12 0 13 4 3 25 -6 14 -14 25 -18 25 -13 0 -142 -224 -131 -228 18 -6 12 -22 -8 -22 -12 0 -29 -17 -47 -47 -15 -27 -43 -72 -62 -102 l-34 -53 -42 69 c-31 52 -46 68 -60 65 -10 -2 -23 1 -29 7 -9 9 -6 13 10 17 19 5 21 10 12 25 -7 14 -21 19 -54 19 -25 0 -45 5 -45 10 0 6 16 10 35 10 19 0 35 2 35 5 0 3 -11 23 -25 45 -18 29 -32 40 -50 40 -14 0 -25 5 -25 10 0 6 7 10 15 10 17 0 18 2 9 24 -4 10 -18 16 -35 16 -16 0 -29 5 -29 10 0 6 7 10 16 10 9 0 14 7 12 18 -2 12 -15 18 -46 20 -48 4 -58 22 -12 22 17 0 30 2 30 5 0 3 -12 24 -26 46 l-26 41 -50 -83 c-27 -46 -53 -88 -58 -92 -4 -5 -17 8 -30 27 -18 30 -27 36 -56 36 -19 0 -34 5 -34 10 0 6 12 10 26 10 29 0 29 -2 -6 57 -28 48 -35 52 -43 23 -4 -15 0 -20 14 -20 10 0 19 -4 19 -10 0 -5 -9 -10 -19 -10 -23 0 -31 -11 -41 -55 -8 -36 3 -45 63 -45 16 0 26 -4 22 -10 -3 -5 -26 -10 -51 -10 -31 0 -44 -4 -44 -14 0 -7 -3 -28 -6 -45 -6 -27 -4 -31 14 -31 29 0 39 -20 13 -27 -33 -8 -26 -33 9 -33 17 0 30 -4 30 -10 0 -5 -11 -10 -25 -10 -18 0 -25 -5 -25 -20 0 -19 7 -20 101 -20 76 0 100 -3 97 -12 -3 -9 -34 -14 -97 -16 -90 -3 -92 -3 -85 -25 19 -62 23 -67 54 -67 16 0 30 -4 30 -10 0 -5 -11 -10 -25 -10 -23 0 -24 -2 -15 -20 8 -15 21 -20 50 -20 48 0 54 -17 8 -22 -30 -3 -31 -4 -14 -21 14 -13 35 -17 102 -17 54 0 83 -4 79 -10 -3 -5 -40 -10 -82 -10 -65 0 -74 -2 -63 -15 8 -10 36 -15 88 -17 90 -3 99 -21 16 -28 -53 -5 -56 -6 -39 -20 13 -11 50 -16 137 -18 139 -4 151 -22 15 -22 l-92 -1 40 -24 c119 -73 282 -94 468 -59 58 10 45 -12 -15 -27 -78 -20 -250 -17 -323 5 -112 34 -194 84 -280 170 -125 126 -181 251 -192 426 -9 158 37 301 141 433 99 126 214 194 411 241 43 11 222 -3 280 -22z m685 -521 l0 -58 51 -5 c70 -7 104 -41 104 -103 0 -65 -26 -88 -110 -93 l-65 -4 0 161 c0 101 4 161 10 161 6 0 10 -26 10 -59z m350 49 c0 -5 -22 -10 -50 -10 l-50 0 0 -115 c0 -70 -4 -115 -10 -115 -6 0 -10 48 -10 125 l0 125 60 0 c33 0 60 -4 60 -10z m66 -30 c16 -40 17 -40 69 -40 56 0 69 9 80 53 7 27 25 38 25 15 0 -6 -19 -62 -42 -125 -28 -74 -48 -113 -56 -111 -8 2 -36 57 -63 123 -56 137 -52 125 -39 125 6 0 17 -18 26 -40z m379 28 c28 -12 35 -35 8 -23 -45 20 -80 17 -109 -8 -26 -22 -29 -32 -29 -82 0 -50 3 -60 28 -81 30 -26 66 -31 99 -13 22 12 37 4 21 -12 -17 -17 -81 -22 -113 -9 -17 7 -37 25 -45 41 -18 35 -19 116 -1 148 26 46 88 63 141 39z m235 2 c0 -5 -26 -10 -57 -12 l-58 -3 0 -45 0 -45 48 -3 c63 -4 60 -22 -4 -22 l-50 0 3 -42 3 -43 58 -3 c81 -4 71 -22 -13 -22 l-70 0 0 125 0 125 70 0 c39 0 70 -4 70 -10z m225 0 c4 -6 -22 -10 -70 -10 l-77 0 42 -50 c78 -93 93 -147 48 -171 -27 -14 -81 -3 -103 21 -22 24 -14 25 27 4 24 -12 36 -13 54 -5 41 19 30 52 -47 142 -27 31 -49 62 -49 68 0 14 166 15 175 1z m220 0 c4 -6 -18 -10 -59 -10 l-66 0 0 -150 c0 -93 -4 -150 -10 -150 -6 0 -10 60 -10 160 l0 160 69 0 c39 0 73 -4 76 -10z m75 -115 c0 -77 -4 -125 -10 -125 -6 0 -10 48 -10 125 0 77 4 125 10 125 6 0 10 -48 10 -125z m223 7 c50 -124 52 -132 39 -132 -5 0 -28 50 -52 110 -24 61 -44 110 -45 110 -2 0 -20 -46 -40 -102 -21 -57 -42 -107 -46 -112 -23 -25 -16 11 21 110 22 60 42 115 45 122 12 34 35 3 78 -106z m257 108 c0 -6 -27 -10 -60 -10 l-60 0 0 -50 0 -50 44 0 c25 0 48 -4 51 -10 4 -6 -13 -10 -44 -10 l-51 0 0 -45 0 -45 60 0 c33 0 60 -4 60 -10 0 -6 -30 -10 -70 -10 l-70 0 0 125 0 125 70 0 c40 0 70 -4 70 -10z m-3240 -70 c0 -5 -13 -10 -30 -10 -16 0 -30 5 -30 10 0 6 14 10 30 10 17 0 30 -4 30 -10z m-80 -60 c0 -6 -35 -10 -85 -10 -50 0 -85 4 -85 10 0 6 35 10 85 10 50 0 85 -4 85 -10z m130 0 c0 -5 -13 -10 -30 -10 -16 0 -30 5 -30 10 0 6 14 10 30 10 17 0 30 -4 30 -10z m600 0 c0 -5 -20 -10 -45 -10 -25 0 -45 5 -45 10 0 6 20 10 45 10 25 0 45 -4 45 -10z m-590 -55 c0 -6 -53 -11 -135 -13 -117 -2 -135 0 -135 13 0 13 18 15 135 13 82 -2 135 -7 135 -13z m85 5 c8 -13 -20 -24 -41 -16 -20 8 -9 26 16 26 10 0 22 -5 25 -10z m520 -5 c0 -11 -119 -20 -142 -11 -8 3 -11 11 -8 16 8 14 150 9 150 -5z m-770 -55 c4 -6 -12 -10 -39 -10 -25 0 -46 5 -46 10 0 6 18 10 39 10 22 0 43 -4 46 -10z m85 0 c0 -5 -11 -10 -25 -10 -14 0 -25 5 -25 10 0 6 11 10 25 10 14 0 25 -4 25 -10z m120 0 c0 -5 -18 -10 -40 -10 -22 0 -40 5 -40 10 0 6 18 10 40 10 22 0 40 -4 40 -10z m490 0 c0 -5 -16 -10 -36 -10 -21 0 -33 4 -29 10 3 6 19 10 36 10 16 0 29 -4 29 -10z m155 0 c4 -6 -18 -10 -59 -10 -37 0 -66 4 -66 10 0 6 26 10 59 10 33 0 63 -4 66 -10z m-680 -65 c0 -11 -79 -19 -102 -11 -8 3 -11 11 -8 16 8 14 110 9 110 -5z m110 0 c0 -11 -59 -19 -82 -11 -8 3 -11 11 -8 16 8 14 90 9 90 -5z m495 6 c0 -9 -199 -22 -213 -14 -4 2 -5 9 -2 14 8 11 215 12 215 0z m110 -1 c0 -5 -18 -10 -40 -10 -22 0 -40 5 -40 10 0 6 18 10 40 10 22 0 40 -4 40 -10z m-880 -60 c0 -6 -27 -10 -60 -10 -33 0 -60 4 -60 10 0 6 27 10 60 10 33 0 60 -4 60 -10z m200 0 c0 -6 -35 -10 -85 -10 -50 0 -85 4 -85 10 0 6 35 10 85 10 50 0 85 -4 85 -10z m140 0 c0 -5 -25 -10 -55 -10 -30 0 -55 5 -55 10 0 6 25 10 55 10 30 0 55 -4 55 -10z m260 0 c0 -5 -18 -10 -40 -10 -22 0 -40 5 -40 10 0 6 18 10 40 10 22 0 40 -4 40 -10z m234 1 c7 -10 -83 -18 -155 -13 -27 2 -49 8 -49 13 0 12 197 12 204 0z m126 -1 c0 -5 -22 -10 -50 -10 -27 0 -50 5 -50 10 0 6 23 10 50 10 28 0 50 -4 50 -10z m-960 -60 c0 -5 -11 -10 -25 -10 -14 0 -25 5 -25 10 0 6 11 10 25 10 14 0 25 -4 25 -10z m275 0 c-4 -6 -57 -10 -126 -10 -73 0 -119 4 -119 10 0 6 49 10 126 10 81 0 123 -4 119 -10z m125 0 c0 -5 -22 -10 -50 -10 -27 0 -50 5 -50 10 0 6 23 10 50 10 28 0 50 -4 50 -10z m155 0 c-3 -5 -19 -10 -36 -10 -16 0 -29 5 -29 10 0 6 16 10 36 10 21 0 33 -4 29 -10z m165 0 c0 -6 -30 -10 -70 -10 -40 0 -70 4 -70 10 0 6 30 10 70 10 40 0 70 -4 70 -10z m90 0 c0 -5 -16 -10 -35 -10 -19 0 -35 5 -35 10 0 6 16 10 35 10 19 0 35 -4 35 -10z m85 0 c-3 -5 -17 -10 -31 -10 -13 0 -24 5 -24 10 0 6 14 10 31 10 17 0 28 -4 24 -10z m85 0 c0 -5 -13 -10 -30 -10 -16 0 -30 5 -30 10 0 6 14 10 30 10 17 0 30 -4 30 -10z m-870 -60 c0 -5 -25 -10 -55 -10 -30 0 -55 5 -55 10 0 6 25 10 55 10 30 0 55 -4 55 -10z m135 0 c4 -6 -10 -10 -34 -10 -23 0 -41 5 -41 10 0 6 15 10 34 10 19 0 38 -4 41 -10z m155 0 c0 -6 -28 -10 -65 -10 -37 0 -65 4 -65 10 0 6 28 10 65 10 37 0 65 -4 65 -10z m80 0 c0 -5 -11 -10 -25 -10 -14 0 -25 5 -25 10 0 6 11 10 25 10 14 0 25 -4 25 -10z m90 0 c0 -5 -16 -10 -35 -10 -19 0 -35 5 -35 10 0 6 16 10 35 10 19 0 35 -4 35 -10z m140 0 c0 -5 -25 -10 -55 -10 -30 0 -55 5 -55 10 0 6 25 10 55 10 30 0 55 -4 55 -10z m150 0 c0 -6 -28 -10 -65 -10 -37 0 -65 4 -65 10 0 6 28 10 65 10 37 0 65 -4 65 -10z m13 -39 c8 -8 5 -16 -11 -27 -61 -42 -65 -124 -10 -181 39 -40 29 -53 -40 -53 -55 0 -94 23 -121 71 -18 31 -28 38 -57 41 -46 4 -49 22 -4 26 32 3 37 7 52 47 13 37 13 45 2 45 -8 0 -14 5 -14 10 0 6 11 10 24 10 13 0 39 7 57 15 36 16 104 14 122 -4z m-633 -21 c0 -5 -22 -10 -50 -10 -27 0 -50 5 -50 10 0 6 23 10 50 10 28 0 50 -4 50 -10z m90 0 c0 -5 -13 -10 -30 -10 -16 0 -30 5 -30 10 0 6 14 10 30 10 17 0 30 -4 30 -10z m190 0 c0 -6 -33 -10 -80 -10 -47 0 -80 4 -80 10 0 6 33 10 80 10 47 0 80 -4 80 -10z m125 0 c-3 -5 -26 -10 -51 -10 -24 0 -44 5 -44 10 0 6 23 10 51 10 31 0 48 -4 44 -10z m-412 -55 c-4 -15 -66 -12 -71 3 -3 10 6 13 34 10 22 -2 38 -7 37 -13z m212 5 c4 -6 -28 -10 -89 -10 -57 0 -96 4 -96 10 0 6 36 10 89 10 50 0 93 -4 96 -10z m195 -5 c0 -16 -162 -13 -168 3 -3 10 15 12 82 10 49 -2 86 -7 86 -13z m-70 -65 c0 -6 -43 -10 -110 -10 -67 0 -110 4 -110 10 0 6 43 10 110 10 67 0 110 -4 110 -10z m-182 -57 c3 -10 -13 -13 -57 -13 -56 0 -79 9 -64 24 12 12 116 2 121 -11z m112 2 c0 -11 -11 -15 -39 -15 -38 0 -57 10 -44 24 3 3 24 6 45 6 27 0 38 -4 38 -15z m85 5 c8 -13 -20 -24 -41 -16 -20 8 -9 26 16 26 10 0 22 -5 25 -10z"/>
 <path d="M892 1559 c-35 -4 -93 -18 -129 -30 -77 -25 -220 -118 -215 -139 2 -8 97 -170 210 -359 l207 -343 36 113 c20 63 40 124 44 137 7 23 6 23 -39 17 -28 -5 -46 -3 -46 2 0 6 18 43 40 83 22 40 40 74 40 75 0 1 -20 10 -45 19 -25 10 -45 21 -45 24 0 4 45 90 100 192 66 123 95 187 87 192 -10 6 -56 13 -147 22 -19 2 -64 0 -98 -5z"/>
 <path d="M1076 1351 c-53 -98 -96 -181 -96 -184 0 -3 20 -13 45 -23 25 -9 45 -19 45 -21 0 -2 -18 -37 -40 -78 l-41 -73 38 8 c21 5 41 6 45 2 5 -5 -6 -52 -23 -106 -17 -54 -29 -99 -27 -101 3 -3 369 596 376 616 4 10 -76 69 -138 102 -90 49 -77 58 -184 -142z"/>
 <path d="M487 1338 c-14 -18 -36 -52 -51 -74 l-27 -41 55 -87 54 -87 11 51 c16 74 14 90 -9 90 -25 0 -25 -1 2 81 30 95 12 130 -35 67z"/>
 <path d="M1337 1245 l-76 -126 90 -147 c49 -80 89 -144 89 -141 0 8 40 192 46 212 4 14 -1 17 -30 17 -46 0 -45 5 1 126 l36 95 -29 41 c-16 23 -34 43 -40 45 -6 2 -45 -53 -87 -122z"/>
 <path d="M546 1264 c-20 -59 -20 -54 5 -54 20 0 21 -4 14 -46 -3 -26 -9 -54 -12 -63 -2 -9 11 9 31 39 20 30 36 60 36 65 0 6 -13 32 -29 58 l-28 49 -17 -48z"/>
 <path d="M1507 1244 c-9 -15 -57 -145 -57 -155 0 -5 14 -9 30 -9 36 0 37 -9 15 -105 -9 -37 -14 -72 -13 -77 6 -16 98 142 98 167 0 46 -61 197 -73 179z"/>
 <path d="M1577 996 c-4 -10 -5 -21 -2 -24 9 -9 17 6 13 25 -3 17 -4 17 -11 -1z"/>
 <path d="M1848 954 c-11 -10 -10 -126 1 -143 12 -19 91 -8 108 15 18 25 16 78 -5 104 -18 22 -90 39 -104 24z"/>
 <path d="M2280 1006 c0 -2 7 -21 16 -42 9 -22 21 -50 26 -64 9 -24 10 -23 29 25 35 91 36 85 -20 85 -28 0 -51 -2 -51 -4z"/>
 <path d="M1315 563 c-128 -32 -116 -213 16 -230 l43 -6 -24 33 c-35 49 -38 116 -7 162 32 46 26 54 -28 41z"/>
 </g>
<g id="layer106" fill="#b0b0b0" stroke="none">
 <path d="M0 930 l0 -930 2110 0 2110 0 0 930 0 930 -2110 0 -2110 0 0 -930z m1180 624 c373 -130 546 -552 370 -902 -42 -83 -107 -171 -127 -172 -19 0 -16 14 7 35 14 13 17 21 9 26 -16 9 -2 29 21 29 10 0 20 7 24 15 4 12 -3 15 -29 15 -19 0 -35 5 -35 10 0 6 20 10 45 10 38 0 46 4 58 28 26 50 30 72 13 72 -24 0 -19 18 6 22 32 5 35 28 4 28 -16 0 -26 6 -26 15 0 10 10 15 29 15 24 0 29 5 35 31 9 47 7 59 -8 59 -24 0 -30 21 -7 27 26 7 28 33 2 33 -13 0 -29 -16 -45 -42 -25 -42 -25 -43 -5 -48 29 -7 24 -24 -8 -28 -15 -2 -38 -15 -49 -29 l-22 -26 -27 42 c-14 24 -29 49 -32 57 -3 8 -18 14 -34 14 -19 0 -29 5 -29 15 0 8 7 15 15 15 20 0 19 4 -11 50 -18 27 -34 40 -50 40 -31 0 -40 18 -14 28 21 8 21 9 3 30 l-18 23 -67 -113 c-37 -62 -63 -114 -58 -116 16 -6 11 -19 -9 -25 -18 -4 -73 -81 -113 -159 -11 -21 -23 -38 -27 -38 -3 0 -23 30 -44 65 -30 51 -43 65 -62 65 -31 0 -43 20 -17 27 18 4 19 8 9 24 -9 14 -23 19 -54 19 -24 0 -43 5 -43 10 0 6 16 10 36 10 l36 0 -25 43 c-18 29 -33 43 -51 45 -27 3 -37 22 -11 22 17 0 18 2 9 24 -4 9 -18 16 -34 16 -35 0 -50 19 -21 27 35 9 18 28 -27 31 -48 4 -57 22 -11 22 l30 0 -22 40 c-13 22 -26 40 -30 40 -4 0 -28 -36 -54 -80 -26 -44 -51 -82 -56 -85 -4 -3 -19 10 -31 29 -19 29 -29 36 -55 36 -38 0 -45 17 -8 22 l24 3 -31 50 c-27 43 -32 47 -38 30 -5 -15 -3 -21 11 -23 26 -5 24 -20 -3 -24 -17 -2 -25 -14 -34 -43 l-11 -40 44 -5 c59 -7 59 -24 1 -28 l-48 -3 0 -45 c0 -32 4 -44 14 -44 24 0 30 -21 7 -27 -33 -8 -26 -33 10 -33 35 0 36 -23 1 -28 -12 -2 -22 -10 -22 -18 0 -11 20 -14 100 -14 82 0 100 -3 100 -15 0 -12 -17 -15 -96 -15 -94 0 -95 0 -88 -22 19 -63 23 -68 54 -68 16 0 30 -4 30 -10 0 -5 -9 -10 -20 -10 -22 0 -23 -1 -14 -24 4 -11 19 -16 45 -16 21 0 39 -4 39 -10 0 -5 -13 -10 -30 -10 -22 0 -28 -4 -24 -15 4 -11 28 -15 97 -17 61 -2 92 -7 95 -15 3 -10 -17 -13 -78 -13 -71 0 -81 -2 -70 -15 8 -10 36 -15 88 -17 89 -3 103 -21 23 -28 -44 -4 -52 -7 -40 -17 10 -8 59 -13 130 -15 140 -4 152 -21 19 -28 l-94 -5 64 -32 c104 -52 177 -66 305 -59 61 3 125 8 143 12 20 4 32 2 32 -4 0 -21 -148 -45 -239 -40 -261 15 -493 192 -576 441 -70 209 -30 440 105 608 135 168 317 253 530 246 85 -3 122 -10 190 -33z m668 -517 l3 -57 35 0 c87 0 138 -76 103 -153 -15 -33 -49 -47 -114 -47 l-55 0 0 161 c0 124 3 160 13 157 7 -3 13 -27 15 -61z m347 54 c3 -6 -17 -11 -47 -13 l-53 -3 -3 -112 c-4 -156 -22 -146 -22 12 l0 125 59 0 c33 0 62 -4 66 -9z m61 -26 c14 -34 15 -35 73 -35 59 0 60 0 72 35 7 19 19 35 26 35 8 0 5 -18 -11 -62 -13 -35 -34 -91 -46 -126 -16 -44 -28 -62 -38 -60 -10 2 -35 51 -64 122 -54 135 -51 126 -37 126 5 0 17 -16 25 -35z m397 16 c17 -17 4 -21 -35 -9 -52 16 -89 -5 -107 -60 -27 -86 30 -157 107 -134 42 13 55 6 28 -14 -25 -18 -79 -18 -115 1 -73 37 -71 194 2 225 27 12 105 6 120 -9z m217 9 c0 -5 -25 -10 -55 -10 l-55 0 0 -50 0 -50 45 0 c25 0 45 -4 45 -10 0 -5 -20 -10 -45 -10 l-45 0 0 -45 0 -45 55 0 c30 0 55 -4 55 -10 0 -6 -30 -10 -70 -10 l-70 0 0 125 0 125 70 0 c40 0 70 -4 70 -10z m230 -4 c0 -10 -15 -12 -70 -8 -38 2 -70 1 -70 -4 0 -4 17 -28 38 -53 39 -47 72 -101 72 -121 0 -20 -41 -50 -69 -50 -18 0 -42 10 -58 25 -31 27 -20 33 21 11 31 -16 65 -10 73 11 8 21 -9 52 -66 121 -28 34 -51 66 -51 72 0 6 34 10 90 10 69 0 90 -3 90 -14z m215 -1 c0 -5 -28 -11 -62 -13 l-63 -3 0 -144 c0 -122 -2 -145 -15 -145 -13 0 -15 23 -13 153 1 83 3 156 6 160 6 11 147 4 147 -8z m75 -110 c0 -77 -4 -125 -10 -125 -6 0 -10 48 -10 125 0 77 4 125 10 125 6 0 10 -48 10 -125z m223 10 c48 -118 53 -135 39 -135 -5 0 -22 33 -37 73 -16 39 -36 89 -45 110 l-17 37 -38 -102 c-20 -57 -41 -107 -46 -112 -22 -24 -17 8 15 95 53 145 55 149 69 149 7 0 33 -50 60 -115z m257 105 c0 -6 -27 -10 -60 -10 l-60 0 0 -50 0 -50 50 0 c28 0 50 -4 50 -10 0 -5 -23 -10 -51 -10 l-50 0 3 -42 3 -43 58 -3 c81 -4 71 -22 -13 -22 l-70 0 0 125 0 125 70 0 c40 0 70 -4 70 -10z m-3242 -67 c2 -9 -7 -13 -27 -13 -30 0 -39 9 -24 24 11 10 46 3 51 -11z m-75 -58 c2 -11 -146 -20 -170 -11 -8 3 -11 11 -8 16 8 14 174 9 178 -5z m125 -2 c2 -9 -7 -13 -27 -13 -21 0 -31 5 -31 16 0 19 51 16 58 -3z m607 -3 c-3 -5 -26 -10 -51 -10 -24 0 -44 5 -44 10 0 6 23 10 51 10 31 0 48 -4 44 -10z m-595 -55 c0 -6 -53 -11 -135 -13 -117 -2 -135 0 -135 13 0 13 18 15 135 13 82 -2 135 -7 135 -13z m81 0 c0 -5 -12 -11 -26 -13 -18 -2 -25 1 -25 13 0 12 7 15 25 13 14 -2 26 -7 26 -13z m524 0 c0 -11 -119 -20 -142 -11 -8 3 -11 11 -8 16 8 14 150 9 150 -5z m-765 -55 c0 -5 -20 -10 -45 -10 -25 0 -45 5 -45 10 0 6 20 10 45 10 25 0 45 -4 45 -10z m80 0 c0 -5 -11 -10 -25 -10 -14 0 -25 5 -25 10 0 6 11 10 25 10 14 0 25 -4 25 -10z m120 0 c0 -5 -18 -10 -40 -10 -22 0 -40 5 -40 10 0 6 18 10 40 10 22 0 40 -4 40 -10z m495 0 c4 -6 -10 -10 -34 -10 -23 0 -41 5 -41 10 0 6 15 10 34 10 19 0 38 -4 41 -10z m153 -2 c-3 -9 -25 -13 -63 -13 -38 0 -60 4 -62 13 -4 9 13 12 62 12 49 0 66 -3 63 -12z m-683 -63 c0 -11 -79 -19 -102 -11 -8 3 -11 11 -8 16 8 14 110 9 110 -5z m110 0 c0 -11 -59 -19 -82 -11 -8 3 -11 11 -8 16 8 14 90 9 90 -5z m493 3 c-3 -9 -34 -14 -98 -16 -98 -3 -125 1 -115 18 10 16 218 13 213 -2z m110 0 c-3 -7 -20 -13 -38 -13 -18 0 -35 6 -37 13 -3 8 8 12 37 12 29 0 40 -4 38 -12z m-878 -58 c0 -6 -27 -10 -60 -10 -33 0 -60 4 -60 10 0 6 27 10 60 10 33 0 60 -4 60 -10z m200 0 c0 -6 -37 -10 -91 -10 -57 0 -88 4 -84 10 3 6 44 10 91 10 49 0 84 -4 84 -10z m140 0 c0 -5 -25 -10 -55 -10 -30 0 -55 5 -55 10 0 6 25 10 55 10 30 0 55 -4 55 -10z m260 0 c0 -5 -21 -10 -46 -10 -27 0 -43 4 -39 10 3 6 24 10 46 10 21 0 39 -4 39 -10z m240 1 c0 -11 -87 -18 -157 -13 -92 8 -57 22 52 22 58 0 105 -4 105 -9z m120 -1 c0 -5 -22 -10 -50 -10 -27 0 -50 5 -50 10 0 6 23 10 50 10 28 0 50 -4 50 -10z m-702 -45 c13 -3 20 -10 17 -15 -8 -13 -245 -13 -245 -1 0 6 24 11 53 13 28 2 75 4 102 6 28 1 60 0 73 -3z m300 -12 c2 -9 -8 -13 -32 -13 -34 0 -44 8 -29 24 11 11 56 2 61 -11z m160 0 c3 -10 -15 -13 -67 -13 -66 0 -82 6 -64 24 12 12 126 2 131 -11z m97 2 c0 -5 -17 -11 -37 -13 -36 -3 -47 5 -31 22 11 10 68 3 68 -9z m83 -2 c2 -9 -7 -13 -27 -13 -30 0 -39 9 -24 24 11 10 46 3 51 -11z m-888 -3 c0 -5 -13 -10 -30 -10 -16 0 -30 5 -30 10 0 6 14 10 30 10 17 0 30 -4 30 -10z m390 0 c0 -5 -22 -10 -50 -10 -27 0 -50 5 -50 10 0 6 23 10 50 10 28 0 50 -4 50 -10z m580 0 c0 -5 -13 -10 -30 -10 -16 0 -30 5 -30 10 0 6 14 10 30 10 17 0 30 -4 30 -10z m-870 -60 c0 -5 -25 -10 -55 -10 -30 0 -55 5 -55 10 0 6 25 10 55 10 30 0 55 -4 55 -10z m140 0 c0 -5 -18 -10 -40 -10 -22 0 -40 5 -40 10 0 6 18 10 40 10 22 0 40 -4 40 -10z m150 0 c0 -6 -28 -10 -65 -10 -37 0 -65 4 -65 10 0 6 28 10 65 10 37 0 65 -4 65 -10z m80 0 c0 -5 -13 -10 -30 -10 -16 0 -30 5 -30 10 0 6 14 10 30 10 17 0 30 -4 30 -10z m90 0 c0 -5 -16 -10 -35 -10 -19 0 -35 5 -35 10 0 6 16 10 35 10 19 0 35 -4 35 -10z m140 0 c0 -5 -25 -10 -55 -10 -30 0 -55 5 -55 10 0 6 25 10 55 10 30 0 55 -4 55 -10z m155 0 c-3 -5 -35 -10 -71 -10 -36 0 -64 4 -64 10 0 6 30 10 71 10 44 0 68 -4 64 -10z m1 -35 c19 -14 18 -15 -8 -37 -57 -48 -59 -114 -5 -175 36 -41 27 -53 -42 -53 -55 0 -103 29 -125 75 -13 28 -23 34 -51 37 -48 4 -49 22 -2 26 25 2 37 8 37 18 0 8 7 28 15 44 14 27 14 30 -1 30 -36 0 -4 25 40 32 27 4 51 9 54 12 11 12 69 6 88 -9z m-628 -22 c2 -9 -11 -13 -47 -13 -48 0 -61 7 -44 24 12 11 86 2 91 -11z m90 0 c2 -9 -7 -13 -27 -13 -30 0 -46 11 -34 24 11 11 56 2 61 -11z m186 11 c34 -13 1 -24 -75 -24 -73 0 -90 6 -72 23 8 9 126 9 147 1z m131 -9 c0 -11 -69 -19 -92 -11 -8 3 -11 11 -8 16 8 14 100 9 100 -5z m-412 -60 c-4 -15 -66 -12 -71 3 -3 10 6 13 34 10 22 -2 38 -7 37 -13z m210 0 c-4 -16 -175 -13 -181 3 -3 10 17 12 90 10 55 -2 92 -7 91 -13z m197 0 c0 -16 -162 -13 -168 3 -3 10 15 12 82 10 49 -2 86 -7 86 -13z m-72 -62 c3 -10 -23 -13 -107 -13 -102 0 -123 5 -104 24 13 12 206 2 211 -11z m-178 -58 c0 -12 -13 -15 -59 -15 -56 0 -79 9 -64 24 3 3 33 6 65 6 45 0 58 -3 58 -15z m115 0 c0 -5 -21 -11 -47 -13 -39 -3 -48 0 -48 13 0 13 9 16 48 13 26 -2 47 -7 47 -13z m80 5 c8 -13 -20 -24 -41 -16 -20 8 -9 26 16 26 10 0 22 -5 25 -10z"/>
 <path d="M790 1537 c-72 -22 -163 -70 -223 -119 l-28 -23 206 -340 c113 -187 210 -344 214 -348 5 -5 25 42 46 109 20 66 38 125 40 131 3 9 -8 11 -40 6 -32 -4 -45 -2 -45 6 0 7 18 45 40 85 l40 73 -41 13 c-23 8 -43 19 -45 25 -3 6 40 94 95 195 l99 185 -36 12 c-65 20 -237 15 -322 -10z"/>
 <path d="M1076 1349 c-53 -100 -96 -183 -96 -184 0 -1 20 -10 45 -19 25 -10 45 -20 45 -23 0 -4 -16 -35 -35 -70 -19 -35 -35 -66 -35 -69 0 -3 19 -3 41 1 l42 7 -6 -28 c-4 -16 -18 -65 -32 -108 -13 -44 -21 -75 -16 -70 5 5 91 144 190 309 l182 300 -28 23 c-36 30 -152 98 -179 106 -20 6 -32 -12 -118 -175z"/>
 <path d="M489 1337 c-14 -18 -38 -51 -52 -73 l-26 -41 51 -83 c56 -89 58 -89 72 -4 6 36 5 42 -13 47 -26 7 -26 23 0 89 19 47 19 99 1 97 -4 0 -19 -15 -33 -32z"/>
 <path d="M1343 1250 c-40 -65 -73 -124 -73 -130 0 -7 38 -75 84 -152 l84 -140 12 58 c7 33 18 85 25 117 l13 57 -33 0 c-19 0 -36 3 -38 8 -3 4 13 52 34 107 22 54 37 106 34 115 -5 13 -61 80 -67 80 -2 0 -36 -54 -75 -120z"/>
 <path d="M551 1278 c-23 -63 -23 -68 0 -68 20 0 21 -3 15 -51 -8 -59 0 -58 33 4 l24 44 -28 46 c-15 26 -29 47 -31 47 -3 0 -8 -10 -13 -22z"/>
 <path d="M1483 1183 c-12 -32 -25 -66 -29 -75 -5 -14 -1 -18 17 -18 46 0 48 -9 28 -104 -11 -49 -18 -90 -16 -92 2 -2 25 32 52 76 l48 81 -12 52 c-13 60 -46 137 -58 137 -4 0 -18 -26 -30 -57z"/>
 <path d="M1575 990 c-3 -5 -1 -10 4 -10 6 0 11 5 11 10 0 6 -2 10 -4 10 -3 0 -8 -4 -11 -10z"/>
 <path d="M1850 881 c0 -79 1 -81 24 -81 31 0 78 18 88 33 14 21 8 74 -10 97 -11 13 -33 23 -60 27 l-42 6 0 -82z"/>
 <path d="M2303 945 c12 -30 25 -55 28 -55 3 0 15 25 26 55 l21 55 -48 0 -48 0 21 -55z"/>
 <path d="M1262 530 c-34 -33 -43 -74 -28 -122 13 -38 67 -78 107 -78 l28 0 -25 38 c-22 31 -25 45 -22 90 3 37 11 59 28 77 l23 25 -40 0 c-33 0 -48 -6 -71 -30z"/>
 </g>
<g id="layer107" fill="#cccccc" stroke="none">
 <path d="M0 930 l0 -930 2110 0 2110 0 0 930 0 930 -2110 0 -2110 0 0 -930z m1182 625 c136 -47 259 -144 337 -264 116 -179 133 -434 42 -623 -36 -77 -118 -188 -137 -188 -18 0 -18 14 1 30 9 7 13 21 10 31 -5 14 0 22 18 28 41 16 42 31 3 31 -50 0 -45 18 6 22 38 3 45 7 65 43 l22 40 -22 12 c-23 12 -24 11 28 28 24 7 17 23 -10 27 -37 4 -36 22 1 26 26 3 33 8 38 34 9 46 7 58 -8 58 -24 0 -30 21 -7 27 26 7 28 33 2 33 -12 0 -29 -16 -44 -42 -25 -42 -25 -43 -6 -48 29 -7 24 -24 -8 -28 -15 -2 -38 -16 -51 -30 -13 -15 -25 -22 -28 -17 -2 6 -18 31 -34 58 -23 35 -36 47 -54 47 -32 0 -43 18 -17 28 20 7 20 8 -5 50 -18 31 -32 42 -49 42 -32 0 -42 18 -16 28 20 7 20 9 5 30 -16 23 -16 23 -65 -58 -27 -45 -49 -83 -49 -85 0 -2 33 -5 73 -7 97 -4 85 -23 -17 -24 -62 0 -80 -4 -88 -17 -6 -11 -5 -17 2 -17 19 0 10 -20 -14 -30 -15 -5 -43 -41 -76 -99 -29 -50 -55 -91 -59 -91 -4 0 -24 29 -45 65 -33 56 -42 65 -67 65 -19 0 -29 5 -29 15 0 8 9 15 20 15 17 0 18 3 9 18 -7 12 -24 17 -55 17 -52 0 -59 18 -9 25 l35 5 -26 43 c-18 31 -32 42 -49 42 -31 0 -43 20 -16 27 17 4 19 8 10 19 -6 8 -22 14 -35 14 -30 0 -42 20 -16 27 36 9 14 33 -30 33 -43 0 -50 22 -10 28 12 2 22 6 22 9 0 12 -35 63 -42 61 -5 -2 -30 -39 -56 -82 -26 -44 -52 -81 -57 -83 -6 -2 -19 13 -29 32 -16 29 -25 35 -53 35 -36 0 -45 19 -13 27 24 7 25 4 -1 47 -22 38 -39 47 -39 21 0 -8 7 -15 16 -15 23 0 11 -24 -13 -28 -20 -3 -33 -28 -33 -64 0 -13 10 -18 42 -20 63 -5 62 -28 -1 -28 l-51 0 0 -45 c0 -38 3 -45 20 -45 11 0 20 -7 20 -15 0 -8 -9 -15 -20 -15 -11 0 -20 -7 -20 -15 0 -10 10 -15 31 -15 35 0 36 -23 1 -28 -12 -2 -22 -10 -22 -17 0 -11 23 -15 103 -17 130 -4 131 -22 1 -26 -86 -2 -95 -5 -89 -20 4 -9 12 -29 17 -44 8 -22 16 -28 39 -28 16 0 29 -4 29 -10 0 -5 -9 -10 -20 -10 -11 0 -20 -4 -20 -8 0 -18 26 -32 57 -32 18 0 33 -4 33 -10 0 -5 -12 -10 -26 -10 -16 0 -24 -5 -22 -12 3 -9 35 -15 93 -18 58 -3 90 -9 93 -17 3 -10 -16 -13 -72 -13 -63 0 -74 -2 -70 -15 5 -12 24 -15 86 -15 59 0 79 -3 76 -12 -3 -8 -28 -15 -58 -18 -44 -4 -51 -7 -39 -17 10 -8 58 -13 129 -15 78 -2 115 -7 117 -15 3 -9 -21 -13 -89 -15 l-93 -3 75 -37 c41 -20 103 -42 137 -48 60 -12 198 -9 286 6 23 4 37 2 37 -5 0 -20 -86 -36 -205 -36 -106 0 -130 3 -202 28 -195 67 -343 215 -410 410 -25 73 -28 96 -28 207 0 111 3 134 28 207 67 193 219 346 405 407 111 36 106 35 232 32 93 -3 129 -9 192 -31z m668 -515 l0 -60 35 0 c88 0 142 -81 103 -153 -19 -37 -41 -46 -105 -47 l-63 0 0 160 c0 136 2 160 15 160 12 0 15 -13 15 -60z m345 51 c3 -6 -17 -11 -47 -13 l-53 -3 -3 -112 c-4 -156 -22 -146 -22 12 l0 125 59 0 c33 0 62 -4 66 -9z m61 -23 c9 -32 11 -33 71 -36 l61 -3 12 36 c6 19 18 35 26 35 10 0 5 -24 -22 -97 -20 -54 -40 -111 -46 -126 -18 -50 -39 -28 -90 93 -53 128 -53 130 -34 130 7 0 17 -15 22 -32z m385 22 c10 -6 19 -17 19 -25 0 -11 -5 -11 -30 2 -33 16 -81 11 -100 -12 -33 -40 -30 -136 4 -164 18 -15 72 -19 104 -8 16 6 22 5 22 -6 0 -34 -107 -37 -145 -4 -52 44 -52 160 0 205 28 24 91 30 126 12z m229 -2 c0 -9 -16 -12 -55 -10 l-55 4 0 -51 0 -51 45 0 c25 0 45 -4 45 -10 0 -5 -20 -10 -45 -10 l-45 0 0 -45 0 -45 55 0 c30 0 55 -4 55 -10 0 -6 -30 -10 -70 -10 l-70 0 0 125 0 125 70 0 c49 0 70 -4 70 -12z m230 -2 c0 -12 -13 -14 -70 -9 -38 3 -70 3 -70 -1 0 -4 22 -35 50 -68 61 -76 72 -114 40 -140 -12 -10 -33 -18 -47 -18 -31 0 -83 30 -83 47 0 17 15 16 30 -2 7 -8 27 -15 46 -15 64 0 58 38 -20 130 -31 36 -56 71 -56 78 0 9 25 12 90 12 72 0 90 -3 90 -14z m220 -1 c0 -12 -14 -15 -65 -15 l-65 0 0 -145 c0 -122 -2 -145 -15 -145 -13 0 -14 24 -13 160 l2 160 78 0 c63 0 78 -3 78 -15z m70 -110 c0 -77 -4 -125 -10 -125 -6 0 -10 48 -10 125 0 77 4 125 10 125 6 0 10 -48 10 -125z m228 0 c34 -84 46 -125 37 -125 -7 0 -32 47 -55 106 -29 71 -46 101 -51 92 -5 -7 -23 -55 -41 -105 -18 -51 -39 -93 -45 -93 -7 0 -13 3 -13 6 0 8 80 226 87 236 15 25 36 -5 81 -117z m252 113 c0 -9 -17 -12 -60 -10 l-60 4 0 -51 0 -51 50 0 c28 0 50 -4 50 -10 0 -5 -23 -10 -51 -10 l-50 0 3 -42 3 -43 58 -3 c81 -4 71 -22 -13 -22 l-70 0 0 125 0 125 70 0 c49 0 70 -4 70 -12z m-3242 -65 c2 -9 -7 -13 -27 -13 -21 0 -31 5 -31 16 0 19 51 16 58 -3z m-75 -58 c2 -11 -146 -20 -170 -11 -8 3 -11 11 -8 16 8 14 174 9 178 -5z m132 0 c0 -5 -15 -11 -32 -13 -25 -3 -33 1 -33 13 0 12 8 16 33 13 17 -2 32 -7 32 -13z m600 0 c0 -5 -21 -11 -47 -13 -39 -3 -48 0 -48 13 0 13 9 16 48 13 26 -2 47 -7 47 -13z m-595 -60 c0 -6 -53 -11 -135 -13 -117 -2 -135 0 -135 13 0 13 18 15 135 13 82 -2 135 -7 135 -13z m90 0 c0 -10 -10 -15 -30 -15 -20 0 -30 5 -30 15 0 10 10 15 30 15 20 0 30 -5 30 -15z m-252 -57 c-3 -8 -21 -13 -43 -13 -22 0 -40 5 -42 13 -3 8 9 12 42 12 33 0 45 -4 43 -12z m82 -3 c0 -16 -45 -21 -54 -6 -8 12 4 21 31 21 14 0 23 -6 23 -15z m123 0 c-4 -15 -76 -12 -81 3 -3 10 7 12 39 10 24 -2 43 -7 42 -13z m490 0 c-4 -15 -66 -12 -71 3 -3 10 6 13 34 10 22 -2 38 -7 37 -13z m155 3 c-5 -14 -99 -24 -125 -14 -32 12 2 26 63 26 48 0 65 -3 62 -12z m-683 -63 c0 -11 -79 -19 -102 -11 -8 3 -11 11 -8 16 8 14 110 9 110 -5z m115 0 c0 -11 -12 -15 -44 -15 -43 0 -63 10 -49 24 3 3 26 6 50 6 32 0 43 -4 43 -15z m488 3 c-3 -9 -34 -13 -108 -13 -74 0 -105 4 -107 13 -4 9 22 12 107 12 85 0 111 -3 108 -12z m112 -3 c0 -11 -11 -15 -40 -15 -29 0 -40 4 -40 15 0 11 11 15 40 15 29 0 40 -4 40 -15z m-880 -55 c0 -6 -27 -10 -60 -10 -33 0 -60 4 -60 10 0 6 27 10 60 10 33 0 60 -4 60 -10z m205 0 c9 -14 -33 -21 -109 -18 -44 2 -71 8 -74 16 -5 15 173 18 183 2z m135 0 c0 -6 -27 -10 -61 -10 -37 0 -58 4 -54 10 3 6 31 10 61 10 30 0 54 -4 54 -10z m258 -2 c-3 -8 -21 -13 -43 -13 -22 0 -40 5 -42 13 -3 8 9 12 42 12 33 0 45 -4 43 -12z m240 0 c-6 -18 -200 -18 -205 0 -4 9 21 12 102 12 81 0 106 -3 103 -12z m120 0 c-3 -8 -23 -13 -53 -13 -30 0 -50 5 -52 13 -4 9 11 12 52 12 41 0 56 -3 53 -12z m-681 -55 c4 -10 -25 -13 -121 -13 -73 0 -126 4 -126 9 0 20 241 23 247 4z m121 0 c2 -9 -11 -13 -47 -13 -39 0 -51 4 -51 16 0 12 10 14 47 12 26 -2 48 -9 51 -15z m160 0 c2 -9 -8 -13 -32 -13 -26 0 -36 4 -36 16 0 19 61 16 68 -3z m160 0 c3 -10 -15 -13 -67 -13 -66 0 -82 6 -64 24 12 12 126 2 131 -11z m97 2 c0 -12 -50 -19 -71 -11 -9 3 -12 11 -9 16 8 14 80 9 80 -5z m83 -2 c2 -9 -7 -13 -27 -13 -21 0 -31 5 -31 16 0 19 51 16 58 -3z m80 0 c2 -9 -7 -13 -27 -13 -30 0 -39 9 -24 24 11 10 46 3 51 -11z m-968 -3 c0 -5 -13 -10 -30 -10 -16 0 -30 5 -30 10 0 6 14 10 30 10 17 0 30 -4 30 -10z m100 -60 c0 -5 -25 -10 -55 -10 -30 0 -55 5 -55 10 0 6 25 10 55 10 30 0 55 -4 55 -10z m140 0 c0 -5 -18 -10 -40 -10 -22 0 -40 5 -40 10 0 6 18 10 40 10 22 0 40 -4 40 -10z m150 0 c0 -6 -28 -10 -65 -10 -37 0 -65 4 -65 10 0 6 28 10 65 10 37 0 65 -4 65 -10z m80 0 c0 -5 -13 -10 -30 -10 -16 0 -30 5 -30 10 0 6 14 10 30 10 17 0 30 -4 30 -10z m100 0 c0 -5 -18 -10 -40 -10 -22 0 -40 5 -40 10 0 6 18 10 40 10 22 0 40 -4 40 -10z m130 0 c0 -5 -25 -10 -55 -10 -30 0 -55 5 -55 10 0 6 25 10 55 10 30 0 55 -4 55 -10z m160 0 c0 -6 -30 -10 -70 -10 -40 0 -70 4 -70 10 0 6 30 10 70 10 40 0 70 -4 70 -10z m-12 -26 c29 -8 28 -20 -7 -54 -15 -16 -31 -43 -35 -60 -7 -38 14 -92 44 -113 38 -26 19 -47 -42 -47 -65 0 -112 26 -135 75 -15 31 -21 35 -55 35 -27 0 -38 4 -38 15 0 11 11 15 40 15 29 0 40 4 40 15 0 9 7 29 15 45 14 27 14 30 -1 30 -33 0 -5 25 34 31 23 3 45 8 48 12 9 9 61 9 92 1z m-618 -29 c0 -11 -12 -15 -50 -15 -38 0 -50 4 -50 15 0 11 12 15 50 15 38 0 50 -4 50 -15z m88 -2 c2 -9 -7 -13 -27 -13 -30 0 -46 11 -34 24 11 11 56 2 61 -11z m195 2 c-2 -5 -39 -11 -83 -13 -67 -2 -80 0 -80 13 0 13 13 15 83 13 48 -2 81 -7 80 -13z m125 -2 c2 -9 -11 -13 -47 -13 -48 0 -68 9 -54 24 12 12 96 2 101 -11z m-410 -55 c-3 -7 -21 -14 -41 -16 -28 -2 -37 1 -37 12 0 12 11 16 41 16 28 0 39 -4 37 -12z m210 0 c-3 -9 -34 -14 -96 -16 -77 -2 -92 0 -92 13 0 12 16 15 96 15 72 0 95 -3 92 -12z m202 -3 c0 -12 -17 -15 -90 -15 -73 0 -90 3 -90 15 0 12 17 15 90 15 73 0 90 -3 90 -15z m-80 -60 c0 -12 -19 -15 -110 -15 -91 0 -110 3 -110 15 0 12 19 15 110 15 91 0 110 -3 110 -15z m-177 -60 c-2 -5 -32 -11 -68 -13 -54 -2 -65 0 -65 13 0 13 11 15 68 13 38 -2 66 -7 65 -13z m112 0 c0 -5 -21 -11 -47 -13 -39 -3 -48 0 -48 13 0 13 9 16 48 13 26 -2 47 -7 47 -13z m78 0 c-3 -13 -53 -20 -53 -7 0 15 13 23 35 20 11 -2 19 -7 18 -13z"/>
 <path d="M822 1546 c-66 -17 -184 -75 -238 -119 l-42 -33 42 -70 c23 -38 118 -194 210 -347 93 -153 170 -276 172 -275 2 2 21 61 42 130 l39 125 -44 -5 c-54 -6 -54 1 -8 85 19 35 35 68 35 72 0 5 -18 16 -40 25 -22 9 -40 20 -40 26 0 6 43 91 96 190 53 100 94 183 91 186 -25 25 -227 31 -315 10z"/>
 <path d="M1077 1348 l-96 -182 42 -18 c23 -11 43 -21 45 -22 2 -2 -13 -36 -33 -76 l-36 -72 40 7 c50 8 50 8 12 -114 -16 -51 -27 -90 -24 -88 3 3 87 142 188 308 l183 303 -37 29 c-44 35 -103 71 -152 91 l-36 15 -96 -181z"/>
 <path d="M475 1315 c-64 -88 -64 -90 -9 -179 52 -84 54 -84 69 2 6 38 5 42 -14 42 -27 0 -27 20 -1 95 18 54 19 95 2 95 -4 0 -25 -25 -47 -55z"/>
 <path d="M1345 1253 c-38 -64 -71 -121 -73 -128 -3 -12 158 -288 164 -282 2 2 15 52 28 110 l23 107 -33 0 c-18 0 -35 3 -37 8 -3 4 13 54 34 111 l40 103 -33 44 c-18 24 -35 43 -38 43 -3 0 -36 -52 -75 -116z"/>
 <path d="M551 1278 c-23 -63 -23 -68 0 -68 20 0 21 -3 15 -52 l-6 -53 31 49 31 50 -23 44 c-30 55 -37 59 -48 30z"/>
 <path d="M1480 1173 c-14 -37 -26 -71 -28 -75 -2 -5 10 -8 27 -8 16 0 32 -4 35 -8 2 -4 -4 -48 -15 -96 -11 -49 -18 -90 -16 -92 1 -2 24 33 51 77 41 69 47 85 41 115 -7 41 -55 154 -64 154 -3 0 -17 -30 -31 -67z"/>
 <path d="M1575 990 c-3 -5 -1 -10 4 -10 6 0 11 5 11 10 0 6 -2 10 -4 10 -3 0 -8 -4 -11 -10z"/>
 <path d="M1850 879 l0 -82 41 6 c67 9 90 41 73 105 -7 26 -51 52 -89 52 -25 0 -25 -1 -25 -81z"/>
 <path d="M2290 991 c0 -5 9 -31 21 -58 l21 -48 18 45 c27 65 26 70 -20 70 -22 0 -40 -4 -40 -9z"/>
 <path d="M1264 526 c-28 -28 -34 -41 -34 -78 0 -24 7 -54 16 -67 18 -25 71 -51 103 -51 20 0 19 2 -4 36 -35 52 -35 121 1 163 l26 31 -37 0 c-29 0 -45 -8 -71 -34z"/>
 </g>
<g id="layer108" fill="#ffffff" stroke="none">
 <path d="M0 930 l0 -930 2110 0 2110 0 0 930 0 930 -2110 0 -2110 0 0 -930z m1140 639 c227 -63 396 -232 459 -459 37 -133 25 -307 -29 -426 -31 -68 -96 -169 -129 -198 -19 -17 -21 -17 -27 -2 -4 10 1 25 10 35 14 15 14 20 2 30 -11 9 -20 4 -45 -24 -25 -29 -31 -44 -31 -82 0 -39 5 -50 35 -78 31 -30 33 -34 18 -47 -9 -7 -38 -13 -65 -12 -57 1 -94 24 -123 77 -18 32 -25 37 -57 37 -27 0 -38 4 -38 15 0 11 11 15 40 15 35 0 40 3 40 23 0 12 7 32 15 44 13 19 13 21 -6 26 -28 8 -14 27 19 27 15 0 38 3 52 7 l25 7 -25 6 c-14 3 -25 12 -25 20 0 12 15 15 70 15 63 0 70 -2 68 -19 -2 -26 24 -44 54 -38 32 6 40 22 11 22 -13 0 -29 4 -37 9 -24 15 -1 31 45 31 41 0 46 3 61 36 17 34 17 36 0 45 -24 14 -21 29 7 29 34 0 42 28 9 32 -42 5 -41 28 1 28 31 0 36 3 36 23 0 12 3 32 6 45 5 16 2 22 -9 22 -25 0 -31 21 -8 27 25 6 28 33 3 33 -10 0 -29 -19 -44 -45 l-28 -45 26 0 c37 0 24 -24 -15 -28 -22 -2 -35 -11 -43 -28 -17 -36 -30 -30 -66 31 -25 42 -39 55 -57 55 -31 0 -42 18 -17 28 20 7 20 8 -5 50 -18 30 -32 42 -48 42 -31 0 -43 20 -17 27 18 4 19 8 9 24 -6 10 -15 19 -18 19 -4 0 -28 -35 -53 -77 l-45 -78 74 -3 c59 -2 75 -6 75 -18 0 -13 -14 -15 -84 -12 -72 3 -86 0 -95 -14 -7 -12 -8 -18 -1 -18 5 0 10 -7 10 -15 0 -8 -9 -15 -19 -15 -13 0 -36 -29 -76 -95 -32 -52 -61 -95 -65 -95 -4 0 -24 29 -45 65 -33 56 -42 65 -67 65 -18 0 -28 5 -28 15 0 8 7 15 16 15 9 0 14 6 12 13 -3 6 -26 14 -53 17 -62 6 -74 30 -15 30 l41 0 -25 43 c-20 32 -32 43 -56 45 -34 4 -40 21 -10 29 30 8 6 33 -31 33 -33 0 -39 19 -10 27 37 10 11 33 -36 33 -50 0 -57 23 -9 28 15 2 26 6 24 10 -2 4 -10 19 -17 35 -8 15 -17 27 -20 27 -4 0 -29 -38 -56 -85 -28 -46 -54 -85 -60 -85 -5 0 -20 16 -32 34 -17 26 -31 35 -55 38 -38 3 -44 21 -10 26 l22 3 -22 40 c-22 40 -38 50 -38 24 0 -8 7 -15 16 -15 23 0 11 -24 -14 -28 -12 -2 -22 -7 -22 -11 0 -5 -3 -23 -6 -40 l-6 -31 46 0 c34 0 46 -4 46 -15 0 -11 -12 -15 -50 -15 l-50 0 0 -45 c0 -38 3 -45 20 -45 11 0 20 -7 20 -15 0 -8 -9 -15 -20 -15 -11 0 -20 -7 -20 -15 0 -10 10 -15 30 -15 20 0 30 -5 30 -15 0 -9 -9 -15 -25 -15 -15 0 -25 -6 -25 -15 0 -11 20 -15 103 -17 129 -4 132 -22 3 -26 l-95 -3 13 -37 c10 -28 19 -38 41 -42 36 -6 43 -27 13 -39 -26 -10 -14 -18 37 -23 36 -4 41 -31 7 -36 -12 -2 -20 -8 -17 -13 4 -5 46 -9 96 -9 72 0 89 -3 89 -15 0 -12 -15 -15 -76 -15 -67 0 -75 -2 -64 -15 9 -11 33 -15 86 -15 59 0 74 -3 74 -15 0 -12 -13 -15 -56 -15 -49 0 -55 -2 -44 -15 9 -11 41 -15 128 -17 81 -2 117 -7 120 -15 3 -10 -20 -13 -90 -13 l-93 -1 40 -24 c102 -64 286 -90 420 -61 68 14 99 10 73 -11 -22 -18 -116 -33 -206 -33 -173 0 -327 65 -452 190 -206 205 -250 511 -112 775 47 90 163 207 252 255 152 80 334 102 490 59z m710 -529 l0 -60 46 0 c37 0 51 -5 75 -29 39 -40 41 -109 4 -146 -21 -22 -33 -25 -90 -25 l-65 0 0 160 c0 136 2 160 15 160 12 0 15 -13 15 -60z m350 45 c0 -11 -12 -15 -50 -15 l-50 0 0 -110 c0 -100 -2 -110 -18 -110 -17 0 -18 11 -18 125 l1 125 68 0 c53 0 67 -3 67 -15z m59 -20 c12 -35 13 -35 71 -35 57 0 59 1 65 31 6 27 29 48 40 37 3 -3 -15 -58 -39 -124 -59 -161 -66 -161 -129 -7 -52 130 -53 133 -34 133 7 0 19 -16 26 -35z m382 25 c10 -6 19 -17 19 -24 0 -11 -6 -11 -37 -1 -43 15 -88 4 -103 -25 -18 -34 -12 -118 10 -140 22 -22 78 -27 111 -10 16 9 19 7 19 -9 0 -23 -19 -31 -77 -31 -36 0 -50 6 -73 28 -53 53 -49 158 7 201 28 23 91 28 124 11z m232 -5 c-2 -5 -28 -11 -58 -13 l-55 -3 0 -39 0 -40 45 0 c33 0 45 -4 45 -15 0 -11 -12 -15 -45 -15 l-45 0 0 -40 0 -39 57 -3 c34 -2 58 -8 61 -15 3 -10 -16 -13 -72 -13 l-76 0 0 125 0 126 73 -3 c41 -2 71 -7 70 -13z m227 0 c0 -12 -15 -15 -72 -15 l-72 0 31 -32 c45 -47 83 -108 83 -131 0 -30 -29 -57 -62 -57 -37 0 -88 26 -88 45 0 19 10 19 34 0 26 -20 72 -19 80 1 8 21 -13 58 -73 129 -28 32 -51 63 -51 67 0 4 43 8 95 8 78 0 95 -3 95 -15z m220 0 c0 -12 -14 -15 -66 -15 l-66 0 4 -145 c3 -133 2 -145 -14 -145 -16 0 -18 14 -18 160 l0 160 80 0 c64 0 80 -3 80 -15z m80 -110 c0 -118 -1 -125 -20 -125 -19 0 -20 6 -19 125 1 116 3 125 20 125 18 0 19 -9 19 -125z m220 0 c27 -66 44 -122 38 -124 -15 -5 -22 7 -62 109 -21 52 -39 96 -41 98 -1 2 -20 -44 -41 -102 -22 -60 -44 -106 -51 -106 -18 0 -18 3 29 133 56 154 64 154 128 -8z m250 110 c0 -12 -13 -15 -60 -15 l-60 0 0 -40 0 -40 50 0 c38 0 50 -4 50 -15 0 -11 -12 -15 -50 -15 -46 0 -50 -2 -50 -24 0 -49 9 -56 66 -56 41 0 54 -4 54 -15 0 -12 -15 -15 -75 -15 l-75 0 0 125 0 125 75 0 c60 0 75 -3 75 -15z m-3240 -60 c0 -16 -55 -22 -64 -6 -8 13 5 21 36 21 18 0 28 -5 28 -15z m-72 -62 c3 -10 -20 -13 -92 -13 -88 0 -108 5 -89 24 13 12 176 2 181 -11z m130 0 c2 -9 -9 -13 -37 -13 -30 0 -41 4 -41 16 0 11 9 14 37 12 20 -2 38 -9 41 -15z m600 0 c2 -9 -11 -13 -47 -13 -48 0 -68 9 -54 24 12 12 96 2 101 -11z m-588 -58 c0 -13 -22 -15 -139 -15 -127 0 -162 6 -144 24 3 3 69 6 145 6 116 0 138 -2 138 -15z m80 0 c0 -16 -55 -22 -64 -6 -8 13 5 21 36 21 18 0 28 -5 28 -15z m-252 -57 c-5 -14 -61 -23 -85 -14 -27 11 -2 26 43 26 32 0 44 -4 42 -12z m92 -4 c0 -11 -8 -14 -32 -12 -46 4 -49 28 -4 28 26 0 36 -4 36 -16z m118 4 c-3 -7 -23 -14 -46 -16 -33 -2 -42 0 -42 12 0 12 11 16 46 16 32 0 44 -4 42 -12z m490 0 c-3 -7 -20 -13 -38 -13 -18 0 -35 6 -37 13 -3 8 8 12 37 12 29 0 40 -4 38 -12z m150 0 c-3 -9 -26 -13 -68 -13 -42 0 -65 4 -67 13 -4 9 14 12 67 12 53 0 71 -3 68 -12z m-678 -63 c0 -13 -11 -15 -57 -13 -81 4 -85 28 -4 28 48 0 61 -3 61 -15z m110 0 c0 -11 -12 -15 -50 -15 -38 0 -50 4 -50 15 0 11 12 15 50 15 38 0 50 -4 50 -15z m490 0 c0 -12 -19 -15 -110 -15 -91 0 -110 3 -110 15 0 12 19 15 110 15 91 0 110 -3 110 -15z m115 0 c0 -5 -19 -11 -42 -13 -34 -3 -43 0 -43 13 0 13 9 16 43 13 23 -2 42 -7 42 -13z m-46 -51 c1 -1 0 -7 -4 -13 -4 -7 -46 -11 -106 -11 -80 0 -99 3 -99 14 0 11 14 16 48 18 48 3 154 -2 161 -8z m-831 -6 c-3 -8 -28 -14 -66 -16 -51 -2 -62 0 -62 13 0 12 13 15 66 15 48 0 65 -3 62 -12z m200 0 c-3 -9 -31 -13 -93 -13 -62 0 -90 4 -92 13 -4 9 19 12 92 12 73 0 96 -3 93 -12z m132 -3 c0 -13 -11 -15 -57 -13 -81 4 -85 28 -4 28 48 0 61 -3 61 -15z m263 0 c-4 -15 -86 -12 -91 3 -3 10 8 12 44 10 27 -2 48 -7 47 -13z m355 3 c-3 -8 -23 -13 -53 -13 -30 0 -50 5 -52 13 -4 9 11 12 52 12 41 0 56 -3 53 -12z m-953 -58 c0 -18 -33 -26 -47 -12 -6 6 -7 15 -3 22 10 16 50 8 50 -10z m272 4 c2 -7 -37 -13 -118 -18 -120 -7 -150 -1 -134 23 9 16 247 10 252 -5z m123 1 c0 -12 -13 -15 -55 -15 -51 0 -65 7 -48 23 3 4 28 7 55 7 36 0 48 -4 48 -15z m160 0 c0 -16 -64 -22 -74 -6 -9 14 5 21 41 21 23 0 33 -5 33 -15z m160 0 c0 -12 -14 -15 -70 -15 -56 0 -70 3 -70 15 0 12 14 15 70 15 56 0 70 -3 70 -15z m98 -2 c2 -9 -9 -13 -37 -13 -39 0 -57 10 -44 24 12 11 76 2 81 -11z m82 2 c0 -16 -55 -22 -64 -6 -8 13 5 21 36 21 18 0 28 -5 28 -15z m83 0 c1 -5 -13 -11 -30 -13 -31 -3 -42 6 -26 22 10 10 53 3 56 -9z m-874 -54 c25 -16 1 -31 -49 -31 -48 0 -67 10 -55 30 8 12 85 13 104 1z m136 -11 c0 -10 -12 -16 -34 -18 -39 -4 -64 13 -41 29 23 14 75 7 75 -11z m154 7 c17 -21 3 -27 -66 -27 -46 0 -63 4 -63 13 0 23 11 27 65 27 32 0 57 -5 64 -13z m76 -7 c0 -18 -33 -26 -47 -12 -6 6 -7 15 -3 22 10 16 50 8 50 -10z m100 0 c0 -18 -52 -27 -67 -12 -17 17 2 33 35 30 20 -2 32 -8 32 -18z m130 0 c0 -18 -92 -27 -109 -10 -17 17 13 31 64 28 32 -2 45 -7 45 -18z m-457 -57 c3 -9 -12 -13 -52 -13 -52 0 -74 9 -59 24 12 12 106 2 111 -11z m87 2 c0 -5 -17 -11 -37 -13 -36 -3 -47 5 -31 22 11 10 68 3 68 -9z m193 -2 c3 -10 -18 -13 -82 -13 -79 0 -105 7 -89 24 13 12 166 2 171 -11z m120 0 c3 -9 -12 -13 -52 -13 -52 0 -66 7 -49 24 12 11 96 2 101 -11z m-408 -58 c0 -11 -11 -15 -39 -15 -38 0 -57 10 -44 24 3 3 24 6 45 6 27 0 38 -4 38 -15z m210 0 c0 -12 -17 -15 -94 -15 -87 0 -116 7 -99 24 3 3 48 6 100 6 76 0 93 -3 93 -15z m200 0 c0 -12 -17 -15 -90 -15 -73 0 -90 3 -90 15 0 12 17 15 90 15 73 0 90 -3 90 -15z m-80 -60 c0 -12 -19 -15 -109 -15 -100 0 -131 6 -114 24 3 3 55 6 115 6 89 0 108 -3 108 -15z m-65 -60 c0 -6 -49 -11 -122 -12 -104 -3 -123 -1 -123 12 0 13 19 15 123 12 73 -1 122 -6 122 -12z m85 0 c0 -10 -10 -15 -30 -15 -20 0 -30 5 -30 15 0 10 10 15 30 15 20 0 30 -5 30 -15z"/>
 <path d="M811 1539 c-106 -27 -267 -123 -259 -153 2 -7 95 -164 208 -350 l205 -338 32 103 c50 161 50 147 -2 151 l-45 3 41 78 c22 43 39 80 37 82 -2 2 -20 10 -40 18 -21 9 -38 22 -38 28 0 7 43 93 95 190 52 97 95 180 95 182 0 3 -23 10 -50 16 -76 16 -196 12 -279 -10z"/>
 <path d="M1082 1354 c-50 -95 -92 -178 -92 -183 0 -5 18 -16 40 -25 22 -9 40 -21 40 -27 0 -6 -16 -40 -36 -75 l-36 -65 41 7 c37 6 41 4 41 -14 0 -11 -4 -31 -9 -45 -16 -41 -41 -130 -35 -125 11 11 354 581 354 589 0 17 -131 105 -190 127 -25 10 -28 5 -118 -164z"/>
 <path d="M482 1323 c-16 -21 -37 -52 -47 -70 l-18 -31 49 -81 c53 -87 51 -87 68 2 6 33 5 37 -13 37 -32 0 -33 15 -6 86 37 98 21 125 -33 57z"/>
 <path d="M1340 1240 l-72 -120 83 -141 84 -140 17 71 c9 39 19 88 23 110 l7 40 -36 0 c-20 0 -36 3 -36 8 0 4 18 54 40 111 l39 104 -30 39 c-17 21 -34 38 -38 38 -5 0 -41 -54 -81 -120z"/>
 <path d="M547 1257 c-15 -45 -15 -46 6 -49 12 -2 21 -8 21 -13 -1 -6 -4 -28 -8 -50 l-7 -40 31 52 31 52 -29 46 -29 47 -16 -45z"/>
 <path d="M1507 1234 c-3 -6 -17 -40 -31 -77 l-25 -67 29 0 c16 0 31 -4 35 -10 3 -5 -1 -40 -10 -77 -8 -37 -17 -79 -20 -93 -3 -14 17 13 45 60 l52 84 -17 61 c-19 70 -49 132 -58 119z"/>
 <path d="M1580 990 c0 -7 3 -10 7 -7 3 4 3 10 0 14 -4 3 -7 0 -7 -7z"/>
 <path d="M1294 550 c-73 -29 -86 -150 -20 -194 24 -15 86 -31 86 -21 0 3 -9 19 -21 34 -28 39 -29 108 -1 155 l21 36 -22 -1 c-12 0 -32 -4 -43 -9z"/>
 <path d="M1850 880 l0 -70 44 0 c35 0 48 5 60 22 22 31 20 60 -5 92 -16 20 -29 26 -60 26 l-39 0 0 -70z"/>
 <path d="M2296 978 c3 -12 13 -37 22 -57 l15 -36 12 35 c30 85 31 80 -15 80 -38 0 -41 -2 -34 -22z"/>
 </g>

</svg>